<?xml version="1.0" standalone="yes"?>
<svg xmlns="http://www.w3.org/2000/svg" width="500" height="500">
<path style="fill:#010101; stroke:none;" d="M0 0L0 500L500 500L500 0L0 0z"/>
<path style="fill:#01204a; stroke:none;" d="M118 76L118 77L172 76L226 77C221.839 72.2381 206.136 75 200 75L146 75C137.099 75 126.561 73.4694 118 76z"/>
<path style="fill:#012b63; stroke:none;" d="M236 75L236 76L380 76C368.782 71.2928 349.206 75 337 75L236 75z"/>
<path style="fill:#01204a; stroke:none;" d="M380 75L381 76L380 75z"/>
<path style="fill:#014bad; stroke:none;" d="M225 324L206.281 290L196.907 278.318L148.104 277.397L136.15 260L112.397 219L102.464 200L111.576 182L136.397 139L148.043 122.603L185 122L198.621 120.972L207.15 108L225 76L149 76C141.52 76 125.803 73.0126 119.379 77.0278C114.945 79.7989 112.231 87.5814 109.719 92C103.438 103.047 97.0819 114.068 90.6034 125C80.4027 142.214 70.5306 159.641 60.5787 177C57.0084 183.228 49.5404 191.784 48.7122 199C47.7651 207.251 60.2462 221.996 64.3966 229C77.3489 250.857 89.9423 272.959 102.579 295C106.955 302.633 112.361 317.953 119.634 322.972C125.383 326.94 141.116 324 148 324L225 324z"/>
<path style="fill:#01204a; stroke:none;" d="M235 76L236 77L235 76z"/>
<path style="fill:#014bad; stroke:none;" d="M184 167L222 167C226.371 167 233.82 168.426 237.39 165.397C245.487 158.528 251.044 143.207 256.281 134C258.467 130.157 260.628 124.33 265.043 122.603C270.575 120.44 279.118 122 285 122L331 122C336.819 122 347.572 119.941 352.671 123.028C358.217 126.385 361.709 136.527 364.85 142C372.327 155.025 379.885 168.01 387.424 181C390.389 186.109 396.44 193.024 397.076 199C397.546 203.406 393.331 208.422 391.201 212C386.153 220.475 373.62 235.096 373.067 245C372.81 249.612 377.656 255.158 379.85 259C385.896 269.591 392.84 279.948 398 291C404.732 285.233 408.909 274.685 413.281 267C421.847 251.942 430.705 237.052 439.281 222C442.592 216.189 451.654 205.936 450.91 199C450.146 191.871 442.597 183.105 439.011 177C429.463 160.743 420.041 144.387 410.719 128C403.861 115.943 396.755 104.029 389.85 92C387.326 87.6019 384.696 79.9221 380.39 77.0278C376.553 74.4485 368.446 76 364 76L323 76L263 76C255.759 76 243.899 73.7219 237.21 76.6034C230.646 79.4312 225.455 93.9891 222 100C209.664 121.465 192.464 143.748 184 167z"/>
<path style="fill:#01367d; stroke:none;" d="M224 77L225 78L224 77z"/>
<path style="fill:#012b63; stroke:none;" d="M381 77L382 78L381 77M117 78L118 79L117 78z"/>
<path style="fill:#01204a; stroke:none;" d="M224 78L225 79L224 78z"/>
<path style="fill:#012b63; stroke:none;" d="M234 78L235 79L234 78z"/>
<path style="fill:#01367d; stroke:none;" d="M223 79L224 80L223 79M382 79L383 80L382 79M116 80L117 81L116 80M233 80L234 81L233 80z"/>
<path style="fill:#01204a; stroke:none;" d="M383 80L384 81L383 80M115 81L116 82L115 81z"/>
<path style="fill:#012b63; stroke:none;" d="M222 81L223 82L222 81z"/>
<path style="fill:#01204a; stroke:none;" d="M232 81L233 82L232 81M384 82L385 83L384 82M114 83L115 84L114 83M221 83L222 84L221 83M231 83L232 84L231 83z"/>
<path style="fill:#01367d; stroke:none;" d="M220 84L221 85L220 84z"/>
<path style="fill:#012b63; stroke:none;" d="M385 84L386 85L385 84M113 85L114 86L113 85z"/>
<path style="fill:#01367d; stroke:none;" d="M230 85L231 86L230 85M219 86L220 87L219 86z"/>
<path style="fill:#01204a; stroke:none;" d="M229 86L230 87L229 86z"/>
<path style="fill:#01367d; stroke:none;" d="M386 86L387 87L386 86M112 87L113 88L112 87M229 87L230 88L229 87z"/>
<path style="fill:#01204a; stroke:none;" d="M387 87L388 88L387 87M111 88L112 89L111 88M218 88L219 89L218 88M228 88L229 89L228 88z"/>
<path style="fill:#012b63; stroke:none;" d="M388 89L389 90L388 89M110 90L111 91L110 90z"/>
<path style="fill:#01204a; stroke:none;" d="M217 90L218 91L217 90z"/>
<path style="fill:#012b63; stroke:none;" d="M227 90L228 91L227 90z"/>
<path style="fill:#01367d; stroke:none;" d="M216 91L217 92L216 91M389 91L390 92L389 91M109 92L110 93L109 92M226 92L227 93L226 92z"/>
<path style="fill:#01204a; stroke:none;" d="M390 92L391 93L390 92M108 93L109 94L108 93z"/>
<path style="fill:#012b63; stroke:none;" d="M215 93L216 94L215 93z"/>
<path style="fill:#01204a; stroke:none;" d="M225 93L226 94L225 93z"/>
<path style="fill:#01367d; stroke:none;" d="M390 93L391 94L390 93M108 94L109 95L108 94z"/>
<path style="fill:#01204a; stroke:none;" d="M391 94L392 95L391 94M107 95L108 96L107 95M214 95L215 96L214 95M224 95L225 96L224 95z"/>
<path style="fill:#01367d; stroke:none;" d="M213 96L214 97L213 96z"/>
<path style="fill:#012b63; stroke:none;" d="M392 96L393 97L392 96M106 97L107 98L106 97z"/>
<path style="fill:#01204a; stroke:none;" d="M213 97L214 98L213 97z"/>
<path style="fill:#012b63; stroke:none;" d="M223 97L224 98L223 97z"/>
<path style="fill:#01367d; stroke:none;" d="M212 98L213 99L212 98M393 98L394 99L393 98M105 99L106 100L105 99M222 99L223 100L222 99z"/>
<path style="fill:#01204a; stroke:none;" d="M394 99L395 100L394 99M104 100L105 101L104 100z"/>
<path style="fill:#012b63; stroke:none;" d="M211 100L212 101L211 100z"/>
<path style="fill:#01204a; stroke:none;" d="M221 100L222 101L221 100z"/>
<path style="fill:#01367d; stroke:none;" d="M104 101L105 102L104 101z"/>
<path style="fill:#01204a; stroke:none;" d="M395 101L396 102L395 101M103 102L104 103L103 102M210 102L211 103L210 102M220 102L221 103L220 102z"/>
<path style="fill:#01367d; stroke:none;" d="M209 103L210 104L209 103z"/>
<path style="fill:#012b63; stroke:none;" d="M396 103L397 104L396 103M102 104L103 105L102 104z"/>
<path style="fill:#01204a; stroke:none;" d="M209 104L210 105L209 104z"/>
<path style="fill:#01367d; stroke:none;" d="M219 104L220 105L219 104M208 105L209 106L208 105z"/>
<path style="fill:#01204a; stroke:none;" d="M218 105L219 106L218 105z"/>
<path style="fill:#01367d; stroke:none;" d="M397 105L398 106L397 105M101 106L102 107L101 106M218 106L219 107L218 106z"/>
<path style="fill:#01204a; stroke:none;" d="M398 106L399 107L398 106M100 107L101 108L100 107z"/>
<path style="fill:#012b63; stroke:none;" d="M207 107L208 108L207 107z"/>
<path style="fill:#01204a; stroke:none;" d="M217 107L218 108L217 107M399 108L400 109L399 108M99 109L100 110L99 109M206 109L207 110L206 109z"/>
<path style="fill:#012b63; stroke:none;" d="M216 109L217 110L216 109z"/>
<path style="fill:#01367d; stroke:none;" d="M205 110L206 111L205 110M400 110L401 111L400 110M98 111L99 112L98 111M215 111L216 112L215 111z"/>
<path style="fill:#01204a; stroke:none;" d="M401 111L402 112L401 111z"/>
<path style="fill:#012b63; stroke:none;" d="M204 112L205 113L204 112z"/>
<path style="fill:#01204a; stroke:none;" d="M214 112L215 113L214 112z"/>
<path style="fill:#01367d; stroke:none;" d="M401 112L402 113L401 112M97 113L98 114L97 113z"/>
<path style="fill:#01204a; stroke:none;" d="M402 113L403 114L402 113M96 114L97 115L96 114M203 114L204 115L203 114M213 114L214 115L213 114z"/>
<path style="fill:#012b63; stroke:none;" d="M403 115L404 116L403 115M95 116L96 117L95 116z"/>
<path style="fill:#01204a; stroke:none;" d="M202 116L203 117L202 116z"/>
<path style="fill:#012b63; stroke:none;" d="M212 116L213 117L212 116z"/>
<path style="fill:#01367d; stroke:none;" d="M201 117L202 118L201 117M404 117L405 118L404 117M94 118L95 119L94 118M211 118L212 119L211 118z"/>
<path style="fill:#01204a; stroke:none;" d="M405 118L406 119L405 118M93 119L94 120L93 119z"/>
<path style="fill:#012b63; stroke:none;" d="M200 119L201 120L200 119z"/>
<path style="fill:#01204a; stroke:none;" d="M210 119L211 120L210 119z"/>
<path style="fill:#01367d; stroke:none;" d="M93 120L94 121L93 120z"/>
<path style="fill:#01204a; stroke:none;" d="M406 120L407 121L406 120M92 121L93 122L92 121M199 121L200 122L199 121M209 121L210 122L209 121M353 122L354 123L353 122z"/>
<path style="fill:#012b63; stroke:none;" d="M407 122L408 123L407 122M91 123L92 124L91 123z"/>
<path style="fill:#01204a; stroke:none;" d="M145 123L146 124L145 123z"/>
<path style="fill:#01367d; stroke:none;" d="M208 123L209 124L208 123z"/>
<path style="fill:#01204a; stroke:none;" d="M262 123L263 124L262 123z"/>
<path style="fill:#01367d; stroke:none;" d="M144 124L145 125L144 124z"/>
<path style="fill:#01204a; stroke:none;" d="M207 124L208 125L207 124z"/>
<path style="fill:#01367d; stroke:none;" d="M261 124L262 125L261 124z"/>
<path style="fill:#01204a; stroke:none;" d="M354 124L355 125L354 124z"/>
<path style="fill:#01367d; stroke:none;" d="M408 124L409 125L408 124M90 125L91 126L90 125z"/>
<path style="fill:#01204a; stroke:none;" d="M144 125L145 126L144 125z"/>
<path style="fill:#01367d; stroke:none;" d="M207 125L208 126L207 125z"/>
<path style="fill:#01204a; stroke:none;" d="M261 125L262 126L261 125z"/>
<path style="fill:#01367d; stroke:none;" d="M355 125L356 126L355 125z"/>
<path style="fill:#01204a; stroke:none;" d="M409 125L410 126L409 125M89 126L90 127L89 126z"/>
<path style="fill:#01367d; stroke:none;" d="M143 126L144 127L143 126z"/>
<path style="fill:#01204a; stroke:none;" d="M206 126L207 127L206 126z"/>
<path style="fill:#01367d; stroke:none;" d="M260 126L261 127L260 126z"/>
<path style="fill:#012b63; stroke:none;" d="M356 127L357 128L356 127z"/>
<path style="fill:#01204a; stroke:none;" d="M410 127L411 128L410 127M88 128L89 129L88 128z"/>
<path style="fill:#012b63; stroke:none;" d="M142 128L143 129L142 128M205 128L206 129L205 128M259 128L260 129L259 128z"/>
<path style="fill:#01204a; stroke:none;" d="M357 129L358 130L357 129z"/>
<path style="fill:#01367d; stroke:none;" d="M411 129L412 130L411 129z"/>
<path style="fill:#012b63; stroke:none;" d="M87 130L88 131L87 130z"/>
<path style="fill:#01204a; stroke:none;" d="M141 130L142 131L141 130z"/>
<path style="fill:#01367d; stroke:none;" d="M204 130L205 131L204 130z"/>
<path style="fill:#01204a; stroke:none;" d="M258 130L259 131L258 130M269 130L269 131L295 131L269 130z"/>
<path style="fill:#01367d; stroke:none;" d="M358 130L359 131L358 130z"/>
<path style="fill:#01204a; stroke:none;" d="M412 130L413 131L412 130z"/>
<path style="fill:#01367d; stroke:none;" d="M140 131L141 132L140 131z"/>
<path style="fill:#01204a; stroke:none;" d="M203 131L204 132L203 131z"/>
<path style="fill:#01367d; stroke:none;" d="M257 131L258 132L257 131z"/>
<path style="fill:#014bad; stroke:none;" d="M268.61 132.028C265.798 133.917 264.076 138.155 262.424 141C260.343 144.586 255.998 149.717 255.998 154C255.998 157.768 259.49 161.852 261.281 165C266.57 174.298 278.94 188.332 280.076 199C280.546 203.406 276.331 208.422 274.201 212C268.84 221.001 258.141 233.696 256.269 244C255.564 247.876 258.763 251.832 260.579 255C262.652 258.617 264.76 264.667 268.39 266.972C272.507 269.587 291.327 269.702 295.39 266.972C299.742 264.049 302.449 256.438 305 252C311.91 239.977 318.975 228.043 325.85 216C328.361 211.601 334.712 204.272 334.026 199C332.779 189.41 322.211 177.354 317.421 169L302.421 143C300.404 139.481 298.443 134.162 294.79 132.028C290.942 129.779 284.301 131 280 131C276.662 131 271.528 130.067 268.61 132.028z"/>
<path style="fill:#01367d; stroke:none;" d="M295 131L296 132L295 131z"/>
<path style="fill:#01204a; stroke:none;" d="M358 131L359 132L358 131z"/>
<path style="fill:#01367d; stroke:none;" d="M412 131L413 132L412 131M86 132L87 133L86 132z"/>
<path style="fill:#01204a; stroke:none;" d="M140 132L141 133L140 132z"/>
<path style="fill:#01367d; stroke:none;" d="M267 132L268 133L267 132z"/>
<path style="fill:#01204a; stroke:none;" d="M296 132L297 133L296 132z"/>
<path style="fill:#01367d; stroke:none;" d="M359 132L360 133L359 132z"/>
<path style="fill:#01204a; stroke:none;" d="M413 132L414 133L413 132M85 133L86 134L85 133z"/>
<path style="fill:#01367d; stroke:none;" d="M139 133L140 134L139 133z"/>
<path style="fill:#01204a; stroke:none;" d="M202 133L203 134L202 133z"/>
<path style="fill:#012b63; stroke:none;" d="M256 133L257 134L256 133z"/>
<path style="fill:#01204a; stroke:none;" d="M266 133L267 134L266 133z"/>
<path style="fill:#01367d; stroke:none;" d="M266 134L267 135L266 134z"/>
<path style="fill:#012b63; stroke:none;" d="M297 134L298 135L297 134z"/>
<path style="fill:#01204a; stroke:none;" d="M360 134L361 135L360 134z"/>
<path style="fill:#012b63; stroke:none;" d="M414 134L415 135L414 134M84 135L85 136L84 135M138 135L139 136L138 135M201 135L202 136L201 135z"/>
<path style="fill:#01204a; stroke:none;" d="M255 135L256 136L255 135M265 135L266 136L265 135z"/>
<path style="fill:#01367d; stroke:none;" d="M298 136L299 137L298 136z"/>
<path style="fill:#01204a; stroke:none;" d="M361 136L362 137L361 136z"/>
<path style="fill:#01367d; stroke:none;" d="M415 136L416 137L415 136M83 137L84 138L83 137z"/>
<path style="fill:#01204a; stroke:none;" d="M137 137L138 138L137 137z"/>
<path style="fill:#01367d; stroke:none;" d="M200 137L201 138L200 137z"/>
<path style="fill:#01204a; stroke:none;" d="M254 137L255 138L254 137z"/>
<path style="fill:#012b63; stroke:none;" d="M264 137L265 138L264 137z"/>
<path style="fill:#01204a; stroke:none;" d="M299 137L300 138L299 137z"/>
<path style="fill:#01367d; stroke:none;" d="M362 137L363 138L362 137z"/>
<path style="fill:#01204a; stroke:none;" d="M416 137L417 138L416 137M82 138L83 139L82 138z"/>
<path style="fill:#01367d; stroke:none;" d="M136 138L137 139L136 138z"/>
<path style="fill:#01204a; stroke:none;" d="M199 138L200 139L199 138z"/>
<path style="fill:#01367d; stroke:none;" d="M253 138L254 139L253 138M82 139L83 140L82 139M263 139L264 140L263 139z"/>
<path style="fill:#01204a; stroke:none;" d="M300 139L301 140L300 139z"/>
<path style="fill:#012b63; stroke:none;" d="M363 139L364 140L363 139z"/>
<path style="fill:#01204a; stroke:none;" d="M417 139L418 140L417 139M81 140L82 141L81 140z"/>
<path style="fill:#012b63; stroke:none;" d="M135 140L136 141L135 140M198 140L199 141L198 140M252 140L253 141L252 140z"/>
<path style="fill:#01204a; stroke:none;" d="M262 140L263 141L262 140z"/>
<path style="fill:#012b63; stroke:none;" d="M301 141L302 142L301 141z"/>
<path style="fill:#01204a; stroke:none;" d="M364 141L365 142L364 141z"/>
<path style="fill:#012b63; stroke:none;" d="M418 141L419 142L418 141M80 142L81 143L80 142z"/>
<path style="fill:#01204a; stroke:none;" d="M134 142L135 143L134 142z"/>
<path style="fill:#01367d; stroke:none;" d="M197 142L198 143L197 142z"/>
<path style="fill:#01204a; stroke:none;" d="M251 142L252 143L251 142M261 142L262 143L261 142z"/>
<path style="fill:#01367d; stroke:none;" d="M133 143L134 144L133 143z"/>
<path style="fill:#01204a; stroke:none;" d="M196 143L197 144L196 143z"/>
<path style="fill:#01367d; stroke:none;" d="M250 143L251 144L250 143M302 143L303 144L302 143z"/>
<path style="fill:#01204a; stroke:none;" d="M365 143L366 144L365 143z"/>
<path style="fill:#01367d; stroke:none;" d="M419 143L420 144L419 143M79 144L80 145L79 144z"/>
<path style="fill:#01204a; stroke:none;" d="M133 144L134 145L133 144z"/>
<path style="fill:#01367d; stroke:none;" d="M196 144L197 145L196 144z"/>
<path style="fill:#01204a; stroke:none;" d="M250 144L251 145L250 144z"/>
<path style="fill:#012b63; stroke:none;" d="M260 144L261 145L260 144z"/>
<path style="fill:#01204a; stroke:none;" d="M303 144L304 145L303 144z"/>
<path style="fill:#01367d; stroke:none;" d="M366 144L367 145L366 144z"/>
<path style="fill:#01204a; stroke:none;" d="M420 144L421 145L420 144M78 145L79 146L78 145z"/>
<path style="fill:#01367d; stroke:none;" d="M132 145L133 146L132 145z"/>
<path style="fill:#01204a; stroke:none;" d="M195 145L196 146L195 145z"/>
<path style="fill:#01367d; stroke:none;" d="M249 145L250 146L249 145M259 146L260 147L259 146z"/>
<path style="fill:#01204a; stroke:none;" d="M304 146L305 147L304 146z"/>
<path style="fill:#012b63; stroke:none;" d="M367 146L368 147L367 146z"/>
<path style="fill:#01204a; stroke:none;" d="M421 146L422 147L421 146M77 147L78 148L77 147z"/>
<path style="fill:#012b63; stroke:none;" d="M131 147L132 148L131 147M194 147L195 148L194 147z"/>
<path style="fill:#01204a; stroke:none;" d="M248 147L249 148L248 147M258 147L259 148L258 147z"/>
<path style="fill:#01367d; stroke:none;" d="M305 148L306 149L305 148z"/>
<path style="fill:#01204a; stroke:none;" d="M368 148L369 149L368 148z"/>
<path style="fill:#012b63; stroke:none;" d="M422 148L423 149L422 148M76 149L77 150L76 149z"/>
<path style="fill:#01204a; stroke:none;" d="M130 149L131 150L130 149z"/>
<path style="fill:#01367d; stroke:none;" d="M193 149L194 150L193 149z"/>
<path style="fill:#01204a; stroke:none;" d="M247 149L248 150L247 149z"/>
<path style="fill:#012b63; stroke:none;" d="M257 149L258 150L257 149z"/>
<path style="fill:#01204a; stroke:none;" d="M306 149L307 150L306 149z"/>
<path style="fill:#01367d; stroke:none;" d="M369 149L370 150L369 149z"/>
<path style="fill:#01204a; stroke:none;" d="M423 149L424 150L423 149z"/>
<path style="fill:#01367d; stroke:none;" d="M129 150L130 151L129 150z"/>
<path style="fill:#01204a; stroke:none;" d="M192 150L193 151L192 150z"/>
<path style="fill:#01367d; stroke:none;" d="M246 150L247 151L246 150M306 150L307 151L306 150z"/>
<path style="fill:#01204a; stroke:none;" d="M369 150L370 151L369 150z"/>
<path style="fill:#01367d; stroke:none;" d="M423 150L424 151L423 150M75 151L76 152L75 151z"/>
<path style="fill:#01204a; stroke:none;" d="M129 151L130 152L129 151z"/>
<path style="fill:#01367d; stroke:none;" d="M256 151L257 152L256 151z"/>
<path style="fill:#01204a; stroke:none;" d="M307 151L308 152L307 151z"/>
<path style="fill:#01367d; stroke:none;" d="M370 151L371 152L370 151z"/>
<path style="fill:#01204a; stroke:none;" d="M424 151L425 152L424 151M74 152L75 153L74 152z"/>
<path style="fill:#01367d; stroke:none;" d="M128 152L129 153L128 152z"/>
<path style="fill:#01204a; stroke:none;" d="M191 152L192 153L191 152z"/>
<path style="fill:#012b63; stroke:none;" d="M245 152L246 153L245 152z"/>
<path style="fill:#01204a; stroke:none;" d="M255 152L256 153L255 152z"/>
<path style="fill:#012b63; stroke:none;" d="M308 153L309 154L308 153M371 153L372 154L371 153M425 153L426 154L425 153M73 154L74 155L73 154M127 154L128 155L127 154M190 154L191 155L190 154z"/>
<path style="fill:#01204a; stroke:none;" d="M244 154L245 155L244 154M255 155L256 156L255 155z"/>
<path style="fill:#01367d; stroke:none;" d="M309 155L310 156L309 155z"/>
<path style="fill:#01204a; stroke:none;" d="M372 155L373 156L372 155z"/>
<path style="fill:#01367d; stroke:none;" d="M426 155L427 156L426 155M72 156L73 157L72 156z"/>
<path style="fill:#01204a; stroke:none;" d="M126 156L127 157L126 156z"/>
<path style="fill:#01367d; stroke:none;" d="M189 156L190 157L189 156z"/>
<path style="fill:#01204a; stroke:none;" d="M243 156L244 157L243 156z"/>
<path style="fill:#01367d; stroke:none;" d="M256 156L257 157L256 156z"/>
<path style="fill:#01204a; stroke:none;" d="M310 156L311 157L310 156z"/>
<path style="fill:#01367d; stroke:none;" d="M373 156L374 157L373 156z"/>
<path style="fill:#01204a; stroke:none;" d="M427 156L428 157L427 156M71 157L72 158L71 157z"/>
<path style="fill:#01367d; stroke:none;" d="M125 157L126 158L125 157z"/>
<path style="fill:#01204a; stroke:none;" d="M188 157L189 158L188 157z"/>
<path style="fill:#01367d; stroke:none;" d="M242 157L243 158L242 157M427 157L428 158L427 157M71 158L72 159L71 158z"/>
<path style="fill:#012b63; stroke:none;" d="M257 158L258 159L257 158z"/>
<path style="fill:#01204a; stroke:none;" d="M311 158L312 159L311 158z"/>
<path style="fill:#012b63; stroke:none;" d="M374 158L375 159L374 158z"/>
<path style="fill:#01204a; stroke:none;" d="M428 158L429 159L428 158M70 159L71 160L70 159z"/>
<path style="fill:#012b63; stroke:none;" d="M124 159L125 160L124 159M187 159L188 160L187 159M241 159L242 160L241 159z"/>
<path style="fill:#01204a; stroke:none;" d="M258 160L259 161L258 160z"/>
<path style="fill:#012b63; stroke:none;" d="M312 160L313 161L312 160z"/>
<path style="fill:#01204a; stroke:none;" d="M375 160L376 161L375 160z"/>
<path style="fill:#012b63; stroke:none;" d="M429 160L430 161L429 160M69 161L70 162L69 161z"/>
<path style="fill:#01204a; stroke:none;" d="M123 161L124 162L123 161z"/>
<path style="fill:#01367d; stroke:none;" d="M186 161L187 162L186 161z"/>
<path style="fill:#01204a; stroke:none;" d="M240 161L241 162L240 161z"/>
<path style="fill:#01367d; stroke:none;" d="M259 161L260 162L259 161z"/>
<path style="fill:#01204a; stroke:none;" d="M185 162L186 163L185 162z"/>
<path style="fill:#01367d; stroke:none;" d="M239 162L240 163L239 162z"/>
<path style="fill:#01204a; stroke:none;" d="M259 162L260 163L259 162z"/>
<path style="fill:#01367d; stroke:none;" d="M313 162L314 163L313 162z"/>
<path style="fill:#01204a; stroke:none;" d="M376 162L377 163L376 162z"/>
<path style="fill:#01367d; stroke:none;" d="M430 162L431 163L430 162M68 163L69 164L68 163z"/>
<path style="fill:#01204a; stroke:none;" d="M122 163L123 164L122 163z"/>
<path style="fill:#01367d; stroke:none;" d="M185 163L186 164L185 163z"/>
<path style="fill:#01204a; stroke:none;" d="M239 163L240 164L239 163z"/>
<path style="fill:#01367d; stroke:none;" d="M260 163L261 164L260 163z"/>
<path style="fill:#01204a; stroke:none;" d="M314 163L315 164L314 163z"/>
<path style="fill:#01367d; stroke:none;" d="M377 163L378 164L377 163z"/>
<path style="fill:#01204a; stroke:none;" d="M431 163L432 164L431 163M67 164L68 165L67 164z"/>
<path style="fill:#01367d; stroke:none;" d="M121 164L122 165L121 164z"/>
<path style="fill:#01204a; stroke:none;" d="M184 164L185 165L184 164z"/>
<path style="fill:#012b63; stroke:none;" d="M238 164L239 165L238 164z"/>
<path style="fill:#01204a; stroke:none;" d="M261 165L262 166L261 165M315 165L316 166L315 165z"/>
<path style="fill:#012b63; stroke:none;" d="M378 165L379 166L378 165z"/>
<path style="fill:#01204a; stroke:none;" d="M432 165L433 166L432 165M66 166L67 167L66 166z"/>
<path style="fill:#012b63; stroke:none;" d="M120 166L121 167L120 166M183 166L184 167L183 166z"/>
<path style="fill:#01204a; stroke:none;" d="M237 166L238 167L237 166M183 167L183 168L237 168L219 167L183 167M262 167L263 168L262 167z"/>
<path style="fill:#012b63; stroke:none;" d="M316 167L317 168L316 167z"/>
<path style="fill:#01204a; stroke:none;" d="M379 167L380 168L379 167z"/>
<path style="fill:#012b63; stroke:none;" d="M433 167L434 168L433 167M65 168L66 169L65 168z"/>
<path style="fill:#01204a; stroke:none;" d="M119 168L120 169L119 168z"/>
<path style="fill:#01367d; stroke:none;" d="M263 168L264 169L263 168z"/>
<path style="fill:#01204a; stroke:none;" d="M317 168L318 169L317 168z"/>
<path style="fill:#01367d; stroke:none;" d="M380 168L381 169L380 168M118 169L119 170L118 169M317 169L318 170L317 169z"/>
<path style="fill:#01204a; stroke:none;" d="M380 169L381 170L380 169z"/>
<path style="fill:#01367d; stroke:none;" d="M434 169L435 170L434 169M64 170L65 171L64 170z"/>
<path style="fill:#01204a; stroke:none;" d="M118 170L119 171L118 170z"/>
<path style="fill:#012b63; stroke:none;" d="M264 170L265 171L264 170z"/>
<path style="fill:#01204a; stroke:none;" d="M318 170L319 171L318 170z"/>
<path style="fill:#01367d; stroke:none;" d="M381 170L382 171L381 170z"/>
<path style="fill:#01204a; stroke:none;" d="M435 170L436 171L435 170M63 171L64 172L63 171z"/>
<path style="fill:#01367d; stroke:none;" d="M117 171L118 172L117 171z"/>
<path style="fill:#01204a; stroke:none;" d="M265 172L266 173L265 172z"/>
<path style="fill:#012b63; stroke:none;" d="M319 172L320 173L319 172M382 172L383 173L382 172M436 172L437 173L436 172M62 173L63 174L62 173M116 173L117 174L116 173z"/>
<path style="fill:#01204a; stroke:none;" d="M266 174L267 175L266 174z"/>
<path style="fill:#01367d; stroke:none;" d="M320 174L321 175L320 174z"/>
<path style="fill:#01204a; stroke:none;" d="M383 174L384 175L383 174z"/>
<path style="fill:#01367d; stroke:none;" d="M437 174L438 175L437 174M61 175L62 176L61 175z"/>
<path style="fill:#01204a; stroke:none;" d="M115 175L116 176L115 175z"/>
<path style="fill:#01367d; stroke:none;" d="M267 175L268 176L267 175z"/>
<path style="fill:#01204a; stroke:none;" d="M321 175L322 176L321 175z"/>
<path style="fill:#01367d; stroke:none;" d="M384 175L385 176L384 175z"/>
<path style="fill:#01204a; stroke:none;" d="M438 175L439 176L438 175M60 176L61 177L60 176z"/>
<path style="fill:#01367d; stroke:none;" d="M114 176L115 177L114 176z"/>
<path style="fill:#01204a; stroke:none;" d="M177 176L178 177L177 176z"/>
<path style="fill:#01367d; stroke:none;" d="M178 176L178 177L257 177L232 176L178 176z"/>
<path style="fill:#012b63; stroke:none;" d="M257 176L258 177L257 176z"/>
<path style="fill:#01367d; stroke:none;" d="M321 176L322 177L321 176M438 176L439 177L438 176M60 177L61 178L60 177z"/>
<path style="fill:#014bad; stroke:none;" d="M177.634 178.028C172.928 181.276 169.805 190.12 167 195C160.676 206.003 154.416 217.057 147.989 228C145.222 232.712 140.257 238.561 139.269 244C138.232 249.706 148.237 266.894 154.043 267.852C159.399 268.736 173.816 270.046 178.39 266.972C186.668 261.41 192.927 243.623 197.85 235C199.922 231.37 202.075 225.335 206.185 223.603C215.809 219.549 233.557 223 244 223C247.745 223 254.128 224.207 257.366 221.972C271.374 212.305 272.541 187.509 257.61 178.028C253.41 175.361 244.811 177 240 177L196 177C191.185 177 181.739 175.195 177.634 178.028z"/>
<path style="fill:#01204a; stroke:none;" d="M258 177L259 178L258 177z"/>
<path style="fill:#012b63; stroke:none;" d="M268 177L269 178L268 177z"/>
<path style="fill:#01204a; stroke:none;" d="M322 177L323 178L322 177z"/>
<path style="fill:#012b63; stroke:none;" d="M385 177L386 178L385 177z"/>
<path style="fill:#01204a; stroke:none;" d="M439 177L440 178L439 177M59 178L60 179L59 178z"/>
<path style="fill:#012b63; stroke:none;" d="M113 178L114 179L113 178z"/>
<path style="fill:#01204a; stroke:none;" d="M176 178L177 179L176 178M259 179L260 180L259 179M269 179L270 180L269 179z"/>
<path style="fill:#012b63; stroke:none;" d="M323 179L324 180L323 179z"/>
<path style="fill:#01204a; stroke:none;" d="M386 179L387 180L386 179z"/>
<path style="fill:#012b63; stroke:none;" d="M440 179L441 180L440 179M58 180L59 181L58 180z"/>
<path style="fill:#01204a; stroke:none;" d="M112 180L113 181L112 180z"/>
<path style="fill:#01367d; stroke:none;" d="M175 180L176 181L175 180M270 180L271 181L270 180z"/>
<path style="fill:#01204a; stroke:none;" d="M174 181L175 182L174 181z"/>
<path style="fill:#01367d; stroke:none;" d="M260 181L261 182L260 181z"/>
<path style="fill:#01204a; stroke:none;" d="M270 181L271 182L270 181z"/>
<path style="fill:#01367d; stroke:none;" d="M324 181L325 182L324 181z"/>
<path style="fill:#01204a; stroke:none;" d="M387 181L388 182L387 181z"/>
<path style="fill:#01367d; stroke:none;" d="M441 181L442 182L441 181M57 182L58 183L57 182z"/>
<path style="fill:#01204a; stroke:none;" d="M111 182L112 183L111 182z"/>
<path style="fill:#01367d; stroke:none;" d="M174 182L175 183L174 182z"/>
<path style="fill:#01204a; stroke:none;" d="M261 182L262 183L261 182z"/>
<path style="fill:#01367d; stroke:none;" d="M271 182L272 183L271 182z"/>
<path style="fill:#01204a; stroke:none;" d="M325 182L326 183L325 182z"/>
<path style="fill:#01367d; stroke:none;" d="M388 182L389 183L388 182z"/>
<path style="fill:#01204a; stroke:none;" d="M442 182L443 183L442 182M56 183L57 184L56 183z"/>
<path style="fill:#01367d; stroke:none;" d="M110 183L111 184L110 183z"/>
<path style="fill:#01204a; stroke:none;" d="M173 183L174 184L173 183z"/>
<path style="fill:#01367d; stroke:none;" d="M261 183L262 184L261 183M56 184L57 185L56 184z"/>
<path style="fill:#01204a; stroke:none;" d="M262 184L263 185L262 184z"/>
<path style="fill:#012b63; stroke:none;" d="M272 184L273 185L272 184z"/>
<path style="fill:#01204a; stroke:none;" d="M326 184L327 185L326 184z"/>
<path style="fill:#012b63; stroke:none;" d="M389 184L390 185L389 184z"/>
<path style="fill:#01204a; stroke:none;" d="M443 184L444 185L443 184M55 185L56 186L55 185z"/>
<path style="fill:#012b63; stroke:none;" d="M109 185L110 186L109 185M172 185L173 186L172 185M263 186L264 187L263 186z"/>
<path style="fill:#01204a; stroke:none;" d="M273 186L274 187L273 186z"/>
<path style="fill:#012b63; stroke:none;" d="M327 186L328 187L327 186z"/>
<path style="fill:#01204a; stroke:none;" d="M390 186L391 187L390 186z"/>
<path style="fill:#012b63; stroke:none;" d="M444 186L445 187L444 186M54 187L55 188L54 187z"/>
<path style="fill:#01204a; stroke:none;" d="M108 187L109 188L108 187z"/>
<path style="fill:#01367d; stroke:none;" d="M171 187L172 188L171 187M274 187L275 188L274 187M391 187L392 188L391 187M107 188L108 189L107 188z"/>
<path style="fill:#01204a; stroke:none;" d="M170 188L171 189L170 188z"/>
<path style="fill:#01367d; stroke:none;" d="M264 188L265 189L264 188z"/>
<path style="fill:#01204a; stroke:none;" d="M274 188L275 189L274 188z"/>
<path style="fill:#01367d; stroke:none;" d="M328 188L329 189L328 188z"/>
<path style="fill:#01204a; stroke:none;" d="M391 188L392 189L391 188z"/>
<path style="fill:#01367d; stroke:none;" d="M445 188L446 189L445 188M53 189L54 190L53 189z"/>
<path style="fill:#01204a; stroke:none;" d="M107 189L108 190L107 189M265 189L266 190L265 189z"/>
<path style="fill:#01367d; stroke:none;" d="M275 189L276 190L275 189z"/>
<path style="fill:#01204a; stroke:none;" d="M329 189L330 190L329 189z"/>
<path style="fill:#01367d; stroke:none;" d="M392 189L393 190L392 189z"/>
<path style="fill:#01204a; stroke:none;" d="M446 189L447 190L446 189M52 190L53 191L52 190z"/>
<path style="fill:#01367d; stroke:none;" d="M106 190L107 191L106 190z"/>
<path style="fill:#01204a; stroke:none;" d="M169 190L170 191L169 190z"/>
<path style="fill:#01367d; stroke:none;" d="M265 190L266 191L265 190z"/>
<path style="fill:#01204a; stroke:none;" d="M266 191L267 192L266 191M276 191L277 192L276 191z"/>
<path style="fill:#012b63; stroke:none;" d="M330 191L331 192L330 191M393 191L394 192L393 191z"/>
<path style="fill:#01204a; stroke:none;" d="M447 191L448 192L447 191M51 192L52 193L51 192z"/>
<path style="fill:#012b63; stroke:none;" d="M105 192L106 193L105 192M168 192L169 193L168 192M267 193L268 194L267 193z"/>
<path style="fill:#01204a; stroke:none;" d="M277 193L278 194L277 193z"/>
<path style="fill:#01367d; stroke:none;" d="M331 193L332 194L331 193z"/>
<path style="fill:#01204a; stroke:none;" d="M394 193L395 194L394 193z"/>
<path style="fill:#01367d; stroke:none;" d="M448 193L449 194L448 193M50 194L51 195L50 194z"/>
<path style="fill:#01204a; stroke:none;" d="M104 194L105 195L104 194z"/>
<path style="fill:#01367d; stroke:none;" d="M167 194L168 195L167 194M278 194L279 195L278 194z"/>
<path style="fill:#01204a; stroke:none;" d="M332 194L333 195L332 194z"/>
<path style="fill:#01367d; stroke:none;" d="M395 194L396 195L395 194z"/>
<path style="fill:#01204a; stroke:none;" d="M449 194L450 195L449 194z"/>
<path style="fill:#01367d; stroke:none;" d="M103 195L104 196L103 195z"/>
<path style="fill:#01204a; stroke:none;" d="M166 195L167 196L166 195z"/>
<path style="fill:#01367d; stroke:none;" d="M268 195L269 196L268 195M332 195L333 196L332 195z"/>
<path style="fill:#01204a; stroke:none;" d="M395 195L396 196L395 195z"/>
<path style="fill:#01367d; stroke:none;" d="M449 195L450 196L449 195M49 196L50 197L49 196z"/>
<path style="fill:#01204a; stroke:none;" d="M269 196L270 197L269 196z"/>
<path style="fill:#012b63; stroke:none;" d="M279 196L280 197L279 196z"/>
<path style="fill:#01204a; stroke:none;" d="M333 196L334 197L333 196z"/>
<path style="fill:#012b63; stroke:none;" d="M396 196L397 197L396 196z"/>
<path style="fill:#01204a; stroke:none;" d="M450 196L451 197L450 196M48 197L49 198L48 197z"/>
<path style="fill:#012b63; stroke:none;" d="M102 197L103 198L102 197z"/>
<path style="fill:#01204a; stroke:none;" d="M165 197L166 198L165 197z"/>
<path style="fill:#01367d; stroke:none;" d="M269 197L270 198L269 197z"/>
<path style="fill:#01204a; stroke:none;" d="M270 198L271 199L270 198M280 198L281 199L280 198z"/>
<path style="fill:#012b63; stroke:none;" d="M334 198L335 199L334 198z"/>
<path style="fill:#01204a; stroke:none;" d="M397 198L398 199L397 198z"/>
<path style="fill:#012b63; stroke:none;" d="M451 198L452 199L451 198z"/>
<path style="fill:#01204a; stroke:none;" d="M47 199L48 200L47 199z"/>
<path style="fill:#012b63; stroke:none;" d="M101 199L102 200L101 199z"/>
<path style="fill:#01367d; stroke:none;" d="M164 199L165 200L164 199M101 200L102 201L101 200z"/>
<path style="fill:#01204a; stroke:none;" d="M163 200L164 201L163 200z"/>
<path style="fill:#01367d; stroke:none;" d="M270 200L271 201L270 200M451 200L452 201L451 200M48 201L49 202L48 201z"/>
<path style="fill:#01204a; stroke:none;" d="M102 201L103 202L102 201z"/>
<path style="fill:#01367d; stroke:none;" d="M163 201L164 202L163 201M280 201L281 202L280 201z"/>
<path style="fill:#01204a; stroke:none;" d="M334 201L335 202L334 201z"/>
<path style="fill:#01367d; stroke:none;" d="M397 201L398 202L397 201z"/>
<path style="fill:#01204a; stroke:none;" d="M451 201L452 202L451 201M162 202L163 203L162 202z"/>
<path style="fill:#012b63; stroke:none;" d="M269 202L270 203L269 202z"/>
<path style="fill:#01204a; stroke:none;" d="M279 202L280 203L279 202z"/>
<path style="fill:#01367d; stroke:none;" d="M333 202L334 203L333 202z"/>
<path style="fill:#01204a; stroke:none;" d="M396 202L397 203L396 202z"/>
<path style="fill:#01367d; stroke:none;" d="M450 202L451 203L450 202z"/>
<path style="fill:#012b63; stroke:none;" d="M49 203L50 204L49 203M103 203L104 204L103 203M161 204L162 205L161 204z"/>
<path style="fill:#01204a; stroke:none;" d="M268 204L269 205L268 204M278 204L279 205L278 204z"/>
<path style="fill:#012b63; stroke:none;" d="M332 204L333 205L332 204M395 204L396 205L395 204M449 204L450 205L449 204z"/>
<path style="fill:#01204a; stroke:none;" d="M50 205L51 206L50 205z"/>
<path style="fill:#01367d; stroke:none;" d="M104 205L105 206L104 205M267 205L268 206L267 205M51 206L52 207L51 206z"/>
<path style="fill:#01204a; stroke:none;" d="M105 206L106 207L105 206z"/>
<path style="fill:#01367d; stroke:none;" d="M160 206L161 207L160 206z"/>
<path style="fill:#01204a; stroke:none;" d="M267 206L268 207L267 206z"/>
<path style="fill:#01367d; stroke:none;" d="M277 206L278 207L277 206z"/>
<path style="fill:#01204a; stroke:none;" d="M331 206L332 207L331 206z"/>
<path style="fill:#01367d; stroke:none;" d="M394 206L395 207L394 206z"/>
<path style="fill:#01204a; stroke:none;" d="M448 206L449 207L448 206z"/>
<path style="fill:#01367d; stroke:none;" d="M105 207L106 208L105 207z"/>
<path style="fill:#01204a; stroke:none;" d="M159 207L160 208L159 207z"/>
<path style="fill:#012b63; stroke:none;" d="M266 207L267 208L266 207z"/>
<path style="fill:#01204a; stroke:none;" d="M276 207L277 208L276 207z"/>
<path style="fill:#01367d; stroke:none;" d="M330 207L331 208L330 207z"/>
<path style="fill:#01204a; stroke:none;" d="M393 207L394 208L393 207z"/>
<path style="fill:#01367d; stroke:none;" d="M447 207L448 208L447 207z"/>
<path style="fill:#012b63; stroke:none;" d="M52 208L53 209L52 208z"/>
<path style="fill:#01204a; stroke:none;" d="M106 208L107 209L106 208z"/>
<path style="fill:#01367d; stroke:none;" d="M276 208L277 209L276 208z"/>
<path style="fill:#01204a; stroke:none;" d="M330 208L331 209L330 208z"/>
<path style="fill:#01367d; stroke:none;" d="M393 208L394 209L393 208z"/>
<path style="fill:#01204a; stroke:none;" d="M447 208L448 209L447 208M158 209L159 210L158 209M265 209L266 210L265 209M275 209L276 210L275 209z"/>
<path style="fill:#01367d; stroke:none;" d="M329 209L330 210L329 209z"/>
<path style="fill:#014bad; stroke:none;" d="M340 209C334.096 220.209 327.426 231.076 321.011 242C318.769 245.817 314.177 251.341 314.712 256C315.912 266.454 327.777 279.912 333 289C335.059 292.582 339.322 297.629 338.532 302C337.502 307.694 332.126 313.998 329.281 319C321.666 332.386 313.817 345.643 306.15 359C303.055 364.391 299.283 374.763 293.79 377.972C288.553 381.032 277.926 379 272 379L226 379C220.339 379 211.462 380.677 206.213 378.397C202.287 376.691 200.154 370.491 198.15 367C192.84 357.749 187.004 341.219 178.621 334.603C174.841 331.62 167.525 333 163 333L125 333C134.861 355.885 150.396 377.325 162.719 399C166.594 405.815 171.531 419.851 178.329 423.972C182.471 426.484 190.316 425 195 425L237 425L296 425C302.866 425 314.362 427.217 320.671 424.397C328.265 421.002 334.442 403.023 338.603 396C351.561 374.134 363.794 351.837 376.799 330C381.309 322.428 391.951 309.89 392.385 301C392.762 293.277 382.664 281.488 378.799 275C366.184 253.817 355.807 227.881 340 209z"/>
<path style="fill:#01204a; stroke:none;" d="M392 209L393 210L392 209z"/>
<path style="fill:#012b63; stroke:none;" d="M446 209L447 210L446 209z"/>
<path style="fill:#01204a; stroke:none;" d="M53 210L54 211L53 210z"/>
<path style="fill:#012b63; stroke:none;" d="M107 210L108 211L107 210z"/>
<path style="fill:#01367d; stroke:none;" d="M339 210L340 211L339 210z"/>
<path style="fill:#012b63; stroke:none;" d="M341 210L342 211L341 210z"/>
<path style="fill:#01367d; stroke:none;" d="M54 211L55 212L54 211z"/>
<path style="fill:#012b63; stroke:none;" d="M157 211L158 212L157 211z"/>
<path style="fill:#01204a; stroke:none;" d="M264 211L265 212L264 211z"/>
<path style="fill:#012b63; stroke:none;" d="M274 211L275 212L274 211z"/>
<path style="fill:#01204a; stroke:none;" d="M328 211L329 212L328 211M338 211L339 212L338 211z"/>
<path style="fill:#012b63; stroke:none;" d="M391 211L392 212L391 211z"/>
<path style="fill:#01204a; stroke:none;" d="M445 211L446 212L445 211M54 212L55 213L54 212z"/>
<path style="fill:#01367d; stroke:none;" d="M108 212L109 213L108 212M263 212L264 213L263 212M342 212L343 213L342 212M55 213L56 214L55 213z"/>
<path style="fill:#01204a; stroke:none;" d="M109 213L110 214L109 213z"/>
<path style="fill:#01367d; stroke:none;" d="M156 213L157 214L156 213M273 213L274 214L273 213z"/>
<path style="fill:#01204a; stroke:none;" d="M327 213L328 214L327 213z"/>
<path style="fill:#012b63; stroke:none;" d="M337 213L338 214L337 213z"/>
<path style="fill:#01204a; stroke:none;" d="M343 213L344 214L343 213z"/>
<path style="fill:#01367d; stroke:none;" d="M390 213L391 214L390 213z"/>
<path style="fill:#01204a; stroke:none;" d="M444 213L445 214L444 213z"/>
<path style="fill:#01367d; stroke:none;" d="M109 214L110 215L109 214z"/>
<path style="fill:#01204a; stroke:none;" d="M155 214L156 215L155 214z"/>
<path style="fill:#012b63; stroke:none;" d="M262 214L263 215L262 214z"/>
<path style="fill:#01204a; stroke:none;" d="M272 214L273 215L272 214z"/>
<path style="fill:#01367d; stroke:none;" d="M326 214L327 215L326 214M343 214L344 215L343 214z"/>
<path style="fill:#01204a; stroke:none;" d="M389 214L390 215L389 214z"/>
<path style="fill:#01367d; stroke:none;" d="M443 214L444 215L443 214z"/>
<path style="fill:#012b63; stroke:none;" d="M56 215L57 216L56 215z"/>
<path style="fill:#01204a; stroke:none;" d="M110 215L111 216L110 215z"/>
<path style="fill:#01367d; stroke:none;" d="M336 215L337 216L336 215z"/>
<path style="fill:#01204a; stroke:none;" d="M344 215L345 216L344 215M154 216L155 217L154 216M261 216L262 217L261 216M271 216L272 217L271 216z"/>
<path style="fill:#012b63; stroke:none;" d="M325 216L326 217L325 216z"/>
<path style="fill:#01204a; stroke:none;" d="M335 216L336 217L335 216M388 216L389 217L388 216z"/>
<path style="fill:#012b63; stroke:none;" d="M442 216L443 217L442 216z"/>
<path style="fill:#01204a; stroke:none;" d="M57 217L58 218L57 217z"/>
<path style="fill:#012b63; stroke:none;" d="M111 217L112 218L111 217z"/>
<path style="fill:#01367d; stroke:none;" d="M260 217L261 218L260 217M335 217L336 218L335 217z"/>
<path style="fill:#012b63; stroke:none;" d="M345 217L346 218L345 217z"/>
<path style="fill:#01367d; stroke:none;" d="M58 218L59 219L58 218z"/>
<path style="fill:#012b63; stroke:none;" d="M153 218L154 219L153 218z"/>
<path style="fill:#01204a; stroke:none;" d="M260 218L261 219L260 218z"/>
<path style="fill:#012b63; stroke:none;" d="M270 218L271 219L270 218z"/>
<path style="fill:#01204a; stroke:none;" d="M324 218L325 219L324 218M334 218L335 219L334 218z"/>
<path style="fill:#012b63; stroke:none;" d="M387 218L388 219L387 218z"/>
<path style="fill:#01204a; stroke:none;" d="M441 218L442 219L441 218M58 219L59 220L58 219z"/>
<path style="fill:#01367d; stroke:none;" d="M112 219L113 220L112 219z"/>
<path style="fill:#01204a; stroke:none;" d="M152 219L153 220L152 219z"/>
<path style="fill:#01367d; stroke:none;" d="M259 219L260 220L259 219M346 219L347 220L346 219z"/>
<path style="fill:#01204a; stroke:none;" d="M386 219L387 220L386 219z"/>
<path style="fill:#01367d; stroke:none;" d="M440 219L441 220L440 219M59 220L60 221L59 220z"/>
<path style="fill:#01204a; stroke:none;" d="M113 220L114 221L113 220z"/>
<path style="fill:#01367d; stroke:none;" d="M152 220L153 221L152 220M269 220L270 221L269 220z"/>
<path style="fill:#01204a; stroke:none;" d="M323 220L324 221L323 220z"/>
<path style="fill:#012b63; stroke:none;" d="M333 220L334 221L333 220z"/>
<path style="fill:#01204a; stroke:none;" d="M347 220L348 221L347 220z"/>
<path style="fill:#01367d; stroke:none;" d="M386 220L387 221L386 220z"/>
<path style="fill:#01204a; stroke:none;" d="M440 220L441 221L440 220M151 221L152 222L151 221M258 221L259 222L258 221M268 221L269 222L268 221z"/>
<path style="fill:#01367d; stroke:none;" d="M322 221L323 222L322 221z"/>
<path style="fill:#01204a; stroke:none;" d="M385 221L386 222L385 221z"/>
<path style="fill:#01367d; stroke:none;" d="M439 221L440 222L439 221z"/>
<path style="fill:#012b63; stroke:none;" d="M60 222L61 223L60 222z"/>
<path style="fill:#01204a; stroke:none;" d="M114 222L115 223L114 222z"/>
<path style="fill:#01367d; stroke:none;" d="M332 222L333 223L332 222z"/>
<path style="fill:#01204a; stroke:none;" d="M348 222L349 223L348 222z"/>
<path style="fill:#012b63; stroke:none;" d="M150 223L151 224L150 223M204 223L205 224L204 223M267 223L268 224L267 223M321 223L322 224L321 223z"/>
<path style="fill:#01204a; stroke:none;" d="M331 223L332 224L331 223z"/>
<path style="fill:#012b63; stroke:none;" d="M384 223L385 224L384 223M438 223L439 224L438 223z"/>
<path style="fill:#01204a; stroke:none;" d="M61 224L62 225L61 224z"/>
<path style="fill:#01367d; stroke:none;" d="M115 224L116 225L115 224z"/>
<path style="fill:#012b63; stroke:none;" d="M349 224L350 225L349 224z"/>
<path style="fill:#01367d; stroke:none;" d="M62 225L63 226L62 225M149 225L150 226L149 225z"/>
<path style="fill:#01204a; stroke:none;" d="M203 225L204 226L203 225z"/>
<path style="fill:#01367d; stroke:none;" d="M266 225L267 226L266 225z"/>
<path style="fill:#01204a; stroke:none;" d="M320 225L321 226L320 225M330 225L331 226L330 225M350 225L351 226L350 225z"/>
<path style="fill:#01367d; stroke:none;" d="M383 225L384 226L383 225z"/>
<path style="fill:#01204a; stroke:none;" d="M437 225L438 226L437 225z"/>
<path style="fill:#01367d; stroke:none;" d="M116 226L117 227L116 226z"/>
<path style="fill:#01204a; stroke:none;" d="M148 226L149 227L148 226z"/>
<path style="fill:#01367d; stroke:none;" d="M202 226L203 227L202 226z"/>
<path style="fill:#01204a; stroke:none;" d="M265 226L266 227L265 226z"/>
<path style="fill:#01367d; stroke:none;" d="M319 226L320 227L319 226M350 226L351 227L350 226z"/>
<path style="fill:#01204a; stroke:none;" d="M382 226L383 227L382 226z"/>
<path style="fill:#01367d; stroke:none;" d="M436 226L437 227L436 226z"/>
<path style="fill:#012b63; stroke:none;" d="M63 227L64 228L63 227z"/>
<path style="fill:#01204a; stroke:none;" d="M117 227L118 228L117 227z"/>
<path style="fill:#01367d; stroke:none;" d="M148 227L149 228L148 227z"/>
<path style="fill:#01204a; stroke:none;" d="M202 227L203 228L202 227z"/>
<path style="fill:#01367d; stroke:none;" d="M265 227L266 228L265 227z"/>
<path style="fill:#01204a; stroke:none;" d="M319 227L320 228L319 227z"/>
<path style="fill:#012b63; stroke:none;" d="M329 227L330 228L329 227z"/>
<path style="fill:#01204a; stroke:none;" d="M351 227L352 228L351 227M147 228L148 229L147 228z"/>
<path style="fill:#012b63; stroke:none;" d="M201 228L202 229L201 228z"/>
<path style="fill:#01204a; stroke:none;" d="M264 228L265 229L264 228z"/>
<path style="fill:#01367d; stroke:none;" d="M318 228L319 229L318 228z"/>
<path style="fill:#01204a; stroke:none;" d="M381 228L382 229L381 228z"/>
<path style="fill:#012b63; stroke:none;" d="M435 228L436 229L435 228z"/>
<path style="fill:#01204a; stroke:none;" d="M64 229L65 230L64 229z"/>
<path style="fill:#012b63; stroke:none;" d="M118 229L119 230L118 229z"/>
<path style="fill:#01367d; stroke:none;" d="M328 229L329 230L328 229z"/>
<path style="fill:#012b63; stroke:none;" d="M352 229L353 230L352 229z"/>
<path style="fill:#01367d; stroke:none;" d="M65 230L66 231L65 230z"/>
<path style="fill:#012b63; stroke:none;" d="M146 230L147 231L146 230z"/>
<path style="fill:#01204a; stroke:none;" d="M200 230L201 231L200 230z"/>
<path style="fill:#012b63; stroke:none;" d="M263 230L264 231L263 230M317 230L318 231L317 230z"/>
<path style="fill:#01204a; stroke:none;" d="M327 230L328 231L327 230z"/>
<path style="fill:#012b63; stroke:none;" d="M380 230L381 231L380 230z"/>
<path style="fill:#01204a; stroke:none;" d="M434 230L435 231L434 230M65 231L66 232L65 231z"/>
<path style="fill:#01367d; stroke:none;" d="M119 231L120 232L119 231z"/>
<path style="fill:#01204a; stroke:none;" d="M210 231L210 232L238 233C231.782 228.289 217.649 231 210 231z"/>
<path style="fill:#01367d; stroke:none;" d="M353 231L354 232L353 231M66 232L67 233L66 232z"/>
<path style="fill:#01204a; stroke:none;" d="M120 232L121 233L120 232z"/>
<path style="fill:#01367d; stroke:none;" d="M145 232L146 233L145 232z"/>
<path style="fill:#01204a; stroke:none;" d="M199 232L200 233L199 232z"/>
<path style="fill:#012b63; stroke:none;" d="M209 232L210 233L209 232z"/>
<path style="fill:#014bad; stroke:none;" d="M210.329 233.028C207.292 234.869 205.699 239.044 204 242C201.873 245.7 197.8 250.595 197.668 255C197.374 264.847 211.615 281.583 216.603 290C221.856 298.863 228.047 317.216 236.61 322.972C240.796 325.786 250.125 324 255 324L298 324C302.844 324 311.376 325.625 315.621 322.972C320.082 320.184 328.909 305.275 328.287 300C327.8 295.87 324.172 291.54 322.15 288C320.323 284.799 318.542 280.094 314.895 278.603C300.442 272.697 277.745 284.879 264.21 276.972C250.142 268.753 250.273 241.704 236.61 233.028C232.972 230.718 226.138 232 222 232C218.49 232 213.465 231.126 210.329 233.028z"/>
<path style="fill:#01367d; stroke:none;" d="M262 232L263 233L262 232z"/>
<path style="fill:#01204a; stroke:none;" d="M316 232L317 233L316 232M326 232L327 233L326 232M354 232L355 233L354 232z"/>
<path style="fill:#01367d; stroke:none;" d="M379 232L380 233L379 232z"/>
<path style="fill:#01204a; stroke:none;" d="M433 232L434 233L433 232z"/>
<path style="fill:#01367d; stroke:none;" d="M120 233L121 234L120 233z"/>
<path style="fill:#01204a; stroke:none;" d="M144 233L145 234L144 233z"/>
<path style="fill:#01367d; stroke:none;" d="M198 233L199 234L198 233z"/>
<path style="fill:#01204a; stroke:none;" d="M261 233L262 234L261 233z"/>
<path style="fill:#01367d; stroke:none;" d="M315 233L316 234L315 233M354 233L355 234L354 233z"/>
<path style="fill:#01204a; stroke:none;" d="M378 233L379 234L378 233z"/>
<path style="fill:#01367d; stroke:none;" d="M432 233L433 234L432 233z"/>
<path style="fill:#012b63; stroke:none;" d="M67 234L68 235L67 234z"/>
<path style="fill:#01204a; stroke:none;" d="M121 234L122 235L121 234z"/>
<path style="fill:#01367d; stroke:none;" d="M208 234L209 235L208 234z"/>
<path style="fill:#01204a; stroke:none;" d="M238 234L239 235L238 234z"/>
<path style="fill:#01367d; stroke:none;" d="M325 234L326 235L325 234z"/>
<path style="fill:#01204a; stroke:none;" d="M355 234L356 235L355 234M143 235L144 236L143 235z"/>
<path style="fill:#012b63; stroke:none;" d="M197 235L198 236L197 235z"/>
<path style="fill:#01204a; stroke:none;" d="M207 235L208 236L207 235M260 235L261 236L260 235z"/>
<path style="fill:#012b63; stroke:none;" d="M314 235L315 236L314 235z"/>
<path style="fill:#01204a; stroke:none;" d="M324 235L325 236L324 235M377 235L378 236L377 235z"/>
<path style="fill:#012b63; stroke:none;" d="M431 235L432 236L431 235z"/>
<path style="fill:#01204a; stroke:none;" d="M68 236L69 237L68 236z"/>
<path style="fill:#012b63; stroke:none;" d="M122 236L123 237L122 236M239 236L240 237L239 236z"/>
<path style="fill:#01367d; stroke:none;" d="M324 236L325 237L324 236z"/>
<path style="fill:#012b63; stroke:none;" d="M356 236L357 237L356 236z"/>
<path style="fill:#01367d; stroke:none;" d="M69 237L70 238L69 237z"/>
<path style="fill:#012b63; stroke:none;" d="M142 237L143 238L142 237z"/>
<path style="fill:#01204a; stroke:none;" d="M196 237L197 238L196 237M206 237L207 238L206 237M240 237L241 238L240 237z"/>
<path style="fill:#01367d; stroke:none;" d="M259 237L260 238L259 237z"/>
<path style="fill:#01204a; stroke:none;" d="M313 237L314 238L313 237M323 237L324 238L323 237z"/>
<path style="fill:#01367d; stroke:none;" d="M376 237L377 238L376 237z"/>
<path style="fill:#01204a; stroke:none;" d="M430 237L431 238L430 237z"/>
<path style="fill:#01367d; stroke:none;" d="M123 238L124 239L123 238z"/>
<path style="fill:#01204a; stroke:none;" d="M141 238L142 239L141 238z"/>
<path style="fill:#01367d; stroke:none;" d="M240 238L241 239L240 238z"/>
<path style="fill:#01204a; stroke:none;" d="M258 238L259 239L258 238z"/>
<path style="fill:#01367d; stroke:none;" d="M357 238L358 239L357 238z"/>
<path style="fill:#01204a; stroke:none;" d="M375 238L376 239L375 238z"/>
<path style="fill:#01367d; stroke:none;" d="M429 238L430 239L429 238M70 239L71 240L70 239z"/>
<path style="fill:#01204a; stroke:none;" d="M124 239L125 240L124 239z"/>
<path style="fill:#01367d; stroke:none;" d="M141 239L142 240L141 239z"/>
<path style="fill:#01204a; stroke:none;" d="M195 239L196 240L195 239z"/>
<path style="fill:#012b63; stroke:none;" d="M205 239L206 240L205 239z"/>
<path style="fill:#01204a; stroke:none;" d="M241 239L242 240L241 239z"/>
<path style="fill:#01367d; stroke:none;" d="M258 239L259 240L258 239z"/>
<path style="fill:#01204a; stroke:none;" d="M312 239L313 240L312 239z"/>
<path style="fill:#012b63; stroke:none;" d="M322 239L323 240L322 239z"/>
<path style="fill:#01204a; stroke:none;" d="M358 239L359 240L358 239z"/>
<path style="fill:#01367d; stroke:none;" d="M375 239L376 240L375 239z"/>
<path style="fill:#01204a; stroke:none;" d="M429 239L430 240L429 239M140 240L141 241L140 240z"/>
<path style="fill:#01367d; stroke:none;" d="M194 240L195 241L194 240z"/>
<path style="fill:#01204a; stroke:none;" d="M257 240L258 241L257 240z"/>
<path style="fill:#01367d; stroke:none;" d="M311 240L312 241L311 240z"/>
<path style="fill:#01204a; stroke:none;" d="M374 240L375 241L374 240z"/>
<path style="fill:#01367d; stroke:none;" d="M428 240L429 241L428 240z"/>
<path style="fill:#01204a; stroke:none;" d="M71 241L72 242L71 241M125 241L126 242L125 241z"/>
<path style="fill:#01367d; stroke:none;" d="M204 241L205 242L204 241z"/>
<path style="fill:#012b63; stroke:none;" d="M242 241L243 242L242 241z"/>
<path style="fill:#01367d; stroke:none;" d="M321 241L322 242L321 241z"/>
<path style="fill:#01204a; stroke:none;" d="M359 241L360 242L359 241z"/>
<path style="fill:#012b63; stroke:none;" d="M139 242L140 243L139 242M193 242L194 243L193 242z"/>
<path style="fill:#01204a; stroke:none;" d="M203 242L204 243L203 242z"/>
<path style="fill:#012b63; stroke:none;" d="M256 242L257 243L256 242M310 242L311 243L310 242z"/>
<path style="fill:#01204a; stroke:none;" d="M320 242L321 243L320 242z"/>
<path style="fill:#012b63; stroke:none;" d="M373 242L374 243L373 242M427 242L428 243L427 242z"/>
<path style="fill:#01204a; stroke:none;" d="M72 243L73 244L72 243z"/>
<path style="fill:#012b63; stroke:none;" d="M126 243L127 244L126 243z"/>
<path style="fill:#01367d; stroke:none;" d="M243 243L244 244L243 243z"/>
<path style="fill:#012b63; stroke:none;" d="M360 243L361 244L360 243z"/>
<path style="fill:#01367d; stroke:none;" d="M73 244L74 245L73 244M138 244L139 245L138 244z"/>
<path style="fill:#01204a; stroke:none;" d="M192 244L193 245L192 244M202 244L203 245L202 244M244 244L245 245L244 244z"/>
<path style="fill:#01367d; stroke:none;" d="M255 244L256 245L255 244z"/>
<path style="fill:#01204a; stroke:none;" d="M309 244L310 245L309 244M319 244L320 245L319 244M361 244L362 245L361 244z"/>
<path style="fill:#01367d; stroke:none;" d="M372 244L373 245L372 244z"/>
<path style="fill:#01204a; stroke:none;" d="M426 244L427 245L426 244z"/>
<path style="fill:#01367d; stroke:none;" d="M127 245L128 246L127 245M191 245L192 246L191 245M244 245L245 246L244 245M308 245L309 246L308 245M361 245L362 246L361 245M425 245L426 246L425 245z"/>
<path style="fill:#012b63; stroke:none;" d="M74 246L75 247L74 246z"/>
<path style="fill:#01204a; stroke:none;" d="M128 246L129 247L128 246M138 246L139 247L138 246M191 246L192 247L191 246z"/>
<path style="fill:#012b63; stroke:none;" d="M201 246L202 247L201 246z"/>
<path style="fill:#01204a; stroke:none;" d="M245 246L246 247L245 246M255 246L256 247L255 246M308 246L309 247L308 246z"/>
<path style="fill:#012b63; stroke:none;" d="M318 246L319 247L318 246z"/>
<path style="fill:#01204a; stroke:none;" d="M362 246L363 247L362 246M372 246L373 247L372 246z"/>
<path style="fill:#01367d; stroke:none;" d="M139 247L140 248L139 247M190 247L191 248L190 247M256 247L257 248L256 247M307 247L308 248L307 247z"/>
<path style="fill:#012b63; stroke:none;" d="M424 247L425 248L424 247z"/>
<path style="fill:#01204a; stroke:none;" d="M75 248L76 249L75 248z"/>
<path style="fill:#012b63; stroke:none;" d="M129 248L130 249L129 248z"/>
<path style="fill:#01204a; stroke:none;" d="M139 248L140 249L139 248z"/>
<path style="fill:#01367d; stroke:none;" d="M200 248L201 249L200 248z"/>
<path style="fill:#012b63; stroke:none;" d="M246 248L247 249L246 248z"/>
<path style="fill:#01204a; stroke:none;" d="M256 248L257 249L256 248z"/>
<path style="fill:#01367d; stroke:none;" d="M317 248L318 249L317 248z"/>
<path style="fill:#012b63; stroke:none;" d="M363 248L364 249L363 248z"/>
<path style="fill:#01204a; stroke:none;" d="M373 248L374 249L373 248z"/>
<path style="fill:#01367d; stroke:none;" d="M76 249L77 250L76 249M140 249L141 250L140 249z"/>
<path style="fill:#012b63; stroke:none;" d="M189 249L190 250L189 249z"/>
<path style="fill:#01204a; stroke:none;" d="M199 249L200 250L199 249z"/>
<path style="fill:#01367d; stroke:none;" d="M257 249L258 250L257 249z"/>
<path style="fill:#012b63; stroke:none;" d="M306 249L307 250L306 249z"/>
<path style="fill:#01204a; stroke:none;" d="M316 249L317 250L316 249z"/>
<path style="fill:#01367d; stroke:none;" d="M374 249L375 250L374 249z"/>
<path style="fill:#01204a; stroke:none;" d="M423 249L424 250L423 249M76 250L77 251L76 250z"/>
<path style="fill:#01367d; stroke:none;" d="M130 250L131 251L130 250M247 250L248 251L247 250M364 250L365 251L364 250M77 251L78 252L77 251z"/>
<path style="fill:#01204a; stroke:none;" d="M131 251L132 252L131 251z"/>
<path style="fill:#012b63; stroke:none;" d="M141 251L142 252L141 251z"/>
<path style="fill:#01204a; stroke:none;" d="M188 251L189 252L188 251M198 251L199 252L198 251M248 251L249 252L248 251z"/>
<path style="fill:#012b63; stroke:none;" d="M258 251L259 252L258 251z"/>
<path style="fill:#01204a; stroke:none;" d="M305 251L306 252L305 251M315 251L316 252L315 251M365 251L366 252L365 251z"/>
<path style="fill:#012b63; stroke:none;" d="M375 251L376 252L375 251z"/>
<path style="fill:#01204a; stroke:none;" d="M422 251L423 252L422 251z"/>
<path style="fill:#01367d; stroke:none;" d="M131 252L132 253L131 252M187 252L188 253L187 252M304 252L305 253L304 252M365 252L366 253L365 252M421 252L422 253L421 252z"/>
<path style="fill:#012b63; stroke:none;" d="M78 253L79 254L78 253z"/>
<path style="fill:#01204a; stroke:none;" d="M132 253L133 254L132 253M142 253L143 254L142 253z"/>
<path style="fill:#012b63; stroke:none;" d="M197 253L198 254L197 253z"/>
<path style="fill:#01204a; stroke:none;" d="M249 253L250 254L249 253M259 253L260 254L259 253z"/>
<path style="fill:#012b63; stroke:none;" d="M314 253L315 254L314 253z"/>
<path style="fill:#01204a; stroke:none;" d="M366 253L367 254L366 253M376 253L377 254L376 253z"/>
<path style="fill:#01367d; stroke:none;" d="M143 254L144 255L143 254z"/>
<path style="fill:#012b63; stroke:none;" d="M186 254L187 255L186 254z"/>
<path style="fill:#01367d; stroke:none;" d="M260 254L261 255L260 254z"/>
<path style="fill:#012b63; stroke:none;" d="M303 254L304 255L303 254z"/>
<path style="fill:#01204a; stroke:none;" d="M313.333 254.667L313.667 255.333L313.333 254.667z"/>
<path style="fill:#01367d; stroke:none;" d="M377 254L378 255L377 254z"/>
<path style="fill:#012b63; stroke:none;" d="M420 254L421 255L420 254z"/>
<path style="fill:#01204a; stroke:none;" d="M79 255L80 256L79 255z"/>
<path style="fill:#012b63; stroke:none;" d="M133 255L134 256L133 255z"/>
<path style="fill:#01204a; stroke:none;" d="M143 255L144 256L143 255M196 255L197 256L196 255z"/>
<path style="fill:#012b63; stroke:none;" d="M250 255L251 256L250 255z"/>
<path style="fill:#01204a; stroke:none;" d="M260 255L261 256L260 255z"/>
<path style="fill:#012b63; stroke:none;" d="M367 255L368 256L367 255z"/>
<path style="fill:#01204a; stroke:none;" d="M377 255L378 256L377 255z"/>
<path style="fill:#01367d; stroke:none;" d="M80 256L81 257L80 256M144 256L145 257L144 256z"/>
<path style="fill:#01204a; stroke:none;" d="M185 256L186 257L185 256z"/>
<path style="fill:#01367d; stroke:none;" d="M261 256L262 257L261 256z"/>
<path style="fill:#01204a; stroke:none;" d="M302 256L303 257L302 256z"/>
<path style="fill:#01367d; stroke:none;" d="M378 256L379 257L378 256z"/>
<path style="fill:#01204a; stroke:none;" d="M419 256L420 257L419 256z"/>
<path style="fill:#01367d; stroke:none;" d="M134 257L135 258L134 257z"/>
<path style="fill:#01204a; stroke:none;" d="M197 257L198 258L197 257z"/>
<path style="fill:#01367d; stroke:none;" d="M251 257L252 258L251 257z"/>
<path style="fill:#01204a; stroke:none;" d="M314 257L315 258L314 257z"/>
<path style="fill:#01367d; stroke:none;" d="M368 257L369 258L368 257M418 257L419 258L418 257z"/>
<path style="fill:#012b63; stroke:none;" d="M81 258L82 259L81 258z"/>
<path style="fill:#01204a; stroke:none;" d="M135 258L136 259L135 258z"/>
<path style="fill:#012b63; stroke:none;" d="M145 258L146 259L145 258z"/>
<path style="fill:#01204a; stroke:none;" d="M184 258L185 259L184 258z"/>
<path style="fill:#01367d; stroke:none;" d="M198 258L199 259L198 258z"/>
<path style="fill:#01204a; stroke:none;" d="M252 258L253 259L252 258z"/>
<path style="fill:#012b63; stroke:none;" d="M262 258L263 259L262 258z"/>
<path style="fill:#01204a; stroke:none;" d="M301 258L302 259L301 258z"/>
<path style="fill:#01367d; stroke:none;" d="M315 258L316 259L315 258z"/>
<path style="fill:#01204a; stroke:none;" d="M369 258L370 259L369 258M379 258L380 259L379 258M418 258L419 259L418 258z"/>
<path style="fill:#01367d; stroke:none;" d="M183 259L184 260L183 259M300 259L301 260L300 259M417 259L418 260L417 259z"/>
<path style="fill:#01204a; stroke:none;" d="M82 260L83 261L82 260M136 260L137 261L136 260M146 260L147 261L146 260z"/>
<path style="fill:#012b63; stroke:none;" d="M199 260L200 261L199 260z"/>
<path style="fill:#01204a; stroke:none;" d="M253 260L254 261L253 260M263 260L264 261L263 260z"/>
<path style="fill:#012b63; stroke:none;" d="M316 260L317 261L316 260z"/>
<path style="fill:#01204a; stroke:none;" d="M370 260L371 261L370 260M380 260L381 261L380 260z"/>
<path style="fill:#01367d; stroke:none;" d="M147 261L148 262L147 261z"/>
<path style="fill:#012b63; stroke:none;" d="M182 261L183 262L182 261z"/>
<path style="fill:#01367d; stroke:none;" d="M264 261L265 262L264 261z"/>
<path style="fill:#012b63; stroke:none;" d="M299 261L300 262L299 261z"/>
<path style="fill:#01367d; stroke:none;" d="M381 261L382 262L381 261z"/>
<path style="fill:#012b63; stroke:none;" d="M416 261L417 262L416 261z"/>
<path style="fill:#01204a; stroke:none;" d="M83 262L84 263L83 262z"/>
<path style="fill:#012b63; stroke:none;" d="M137 262L138 263L137 262z"/>
<path style="fill:#01204a; stroke:none;" d="M200 262L201 263L200 262z"/>
<path style="fill:#012b63; stroke:none;" d="M254 262L255 263L254 262z"/>
<path style="fill:#01204a; stroke:none;" d="M264 262L265 263L264 262M317 262L318 263L317 262z"/>
<path style="fill:#012b63; stroke:none;" d="M371 262L372 263L371 262z"/>
<path style="fill:#01367d; stroke:none;" d="M84 263L85 264L84 263z"/>
<path style="fill:#012b63; stroke:none;" d="M148 263L149 264L148 263z"/>
<path style="fill:#01204a; stroke:none;" d="M181 263L182 264L181 263z"/>
<path style="fill:#01367d; stroke:none;" d="M201 263L202 264L201 263z"/>
<path style="fill:#01204a; stroke:none;" d="M255 263L256 264L255 263z"/>
<path style="fill:#01367d; stroke:none;" d="M265 263L266 264L265 263z"/>
<path style="fill:#01204a; stroke:none;" d="M298 263L299 264L298 263M372 263L373 264L372 263z"/>
<path style="fill:#012b63; stroke:none;" d="M382 263L383 264L382 263z"/>
<path style="fill:#01204a; stroke:none;" d="M415 263L416 264L415 263z"/>
<path style="fill:#01367d; stroke:none;" d="M138 264L139 265L138 264M180 264L181 265L180 264z"/>
<path style="fill:#01204a; stroke:none;" d="M201 264L202 265L201 264z"/>
<path style="fill:#01367d; stroke:none;" d="M255 264L256 265L255 264M297 264L298 265L297 264z"/>
<path style="fill:#01204a; stroke:none;" d="M318 264L319 265L318 264z"/>
<path style="fill:#01367d; stroke:none;" d="M372 264L373 265L372 264M414 264L415 265L414 264z"/>
<path style="fill:#012b63; stroke:none;" d="M85 265L86 266L85 265z"/>
<path style="fill:#01204a; stroke:none;" d="M139 265L140 266L139 265M149 265L150 266L149 265M180 265L181 266L180 265z"/>
<path style="fill:#01367d; stroke:none;" d="M202 265L203 266L202 265z"/>
<path style="fill:#01204a; stroke:none;" d="M256 265L257 266L256 265M266 265L267 266L266 265M297 265L298 266L297 265z"/>
<path style="fill:#01367d; stroke:none;" d="M319 265L320 266L319 265z"/>
<path style="fill:#01204a; stroke:none;" d="M373 265L374 266L373 265M383 265L384 266L383 265z"/>
<path style="fill:#01367d; stroke:none;" d="M179 266L180 267L179 266M296 266L297 267L296 266z"/>
<path style="fill:#012b63; stroke:none;" d="M413 266L414 267L413 266z"/>
<path style="fill:#01204a; stroke:none;" d="M86 267L87 268L86 267z"/>
<path style="fill:#012b63; stroke:none;" d="M140 267L141 268L140 267z"/>
<path style="fill:#01204a; stroke:none;" d="M150 267L151 268L150 267z"/>
<path style="fill:#012b63; stroke:none;" d="M203 267L204 268L203 267M257 267L258 268L257 267z"/>
<path style="fill:#01204a; stroke:none;" d="M267 267L268 268L267 267z"/>
<path style="fill:#012b63; stroke:none;" d="M320 267L321 268L320 267M374 267L375 268L374 267z"/>
<path style="fill:#01204a; stroke:none;" d="M384 267L385 268L384 267z"/>
<path style="fill:#01367d; stroke:none;" d="M87 268L88 269L87 268z"/>
<path style="fill:#012b63; stroke:none;" d="M151 268L152 269L151 268z"/>
<path style="fill:#01367d; stroke:none;" d="M152 268L152 269L178 269L152 268z"/>
<path style="fill:#01204a; stroke:none;" d="M178 268L179 269L178 268z"/>
<path style="fill:#01367d; stroke:none;" d="M268 268L268 269L295 269L268 268z"/>
<path style="fill:#01204a; stroke:none;" d="M295 268L296 269L295 268z"/>
<path style="fill:#01367d; stroke:none;" d="M385 268L386 269L385 268z"/>
<path style="fill:#01204a; stroke:none;" d="M412 268L413 269L412 268M87 269L88 270L87 269z"/>
<path style="fill:#01367d; stroke:none;" d="M141 269L142 270L141 269z"/>
<path style="fill:#01204a; stroke:none;" d="M204 269L205 270L204 269z"/>
<path style="fill:#01367d; stroke:none;" d="M258 269L259 270L258 269z"/>
<path style="fill:#01204a; stroke:none;" d="M321 269L322 270L321 269z"/>
<path style="fill:#01367d; stroke:none;" d="M375 269L376 270L375 269M88 270L89 271L88 270z"/>
<path style="fill:#01204a; stroke:none;" d="M142 270L143 271L142 270z"/>
<path style="fill:#01367d; stroke:none;" d="M205 270L206 271L205 270z"/>
<path style="fill:#01204a; stroke:none;" d="M259 270L260 271L259 270z"/>
<path style="fill:#01367d; stroke:none;" d="M322 270L323 271L322 270z"/>
<path style="fill:#01204a; stroke:none;" d="M376 270L377 271L376 270z"/>
<path style="fill:#012b63; stroke:none;" d="M386 270L387 271L386 270z"/>
<path style="fill:#01204a; stroke:none;" d="M411 270L412 271L411 270z"/>
<path style="fill:#01367d; stroke:none;" d="M142 271L143 272L142 271M259 271L260 272L259 271z"/>
<path style="fill:#01204a; stroke:none;" d="M322 271L323 272L322 271z"/>
<path style="fill:#01367d; stroke:none;" d="M376 271L377 272L376 271M410 271L411 272L410 271z"/>
<path style="fill:#012b63; stroke:none;" d="M89 272L90 273L89 272z"/>
<path style="fill:#01204a; stroke:none;" d="M143 272L144 273L143 272z"/>
<path style="fill:#012b63; stroke:none;" d="M206 272L207 273L206 272z"/>
<path style="fill:#01204a; stroke:none;" d="M260 272L261 273L260 272z"/>
<path style="fill:#012b63; stroke:none;" d="M323 272L324 273L323 272z"/>
<path style="fill:#01204a; stroke:none;" d="M377 272L378 273L377 272M387 272L388 273L387 272z"/>
<path style="fill:#01367d; stroke:none;" d="M388 273L389 274L388 273z"/>
<path style="fill:#012b63; stroke:none;" d="M409 273L410 274L409 273z"/>
<path style="fill:#01204a; stroke:none;" d="M90 274L91 275L90 274z"/>
<path style="fill:#012b63; stroke:none;" d="M144 274L145 275L144 274z"/>
<path style="fill:#01204a; stroke:none;" d="M207 274L208 275L207 274z"/>
<path style="fill:#012b63; stroke:none;" d="M261 274L262 275L261 274z"/>
<path style="fill:#01204a; stroke:none;" d="M324 274L325 275L324 274z"/>
<path style="fill:#012b63; stroke:none;" d="M378 274L379 275L378 274z"/>
<path style="fill:#01204a; stroke:none;" d="M388 274L389 275L388 274z"/>
<path style="fill:#01367d; stroke:none;" d="M91 275L92 276L91 275M389 275L390 276L389 275z"/>
<path style="fill:#01204a; stroke:none;" d="M408 275L409 276L408 275z"/>
<path style="fill:#01367d; stroke:none;" d="M145 276L146 277L145 276z"/>
<path style="fill:#01204a; stroke:none;" d="M208 276L209 277L208 276z"/>
<path style="fill:#01367d; stroke:none;" d="M262 276L263 277L262 276z"/>
<path style="fill:#01204a; stroke:none;" d="M325 276L326 277L325 276z"/>
<path style="fill:#01367d; stroke:none;" d="M379 276L380 277L379 276M407 276L408 277L407 276z"/>
<path style="fill:#012b63; stroke:none;" d="M92 277L93 278L92 277M146 277L147 278L146 277z"/>
<path style="fill:#01204a; stroke:none;" d="M147 277L147 278L199 278L182 277L147 277z"/>
<path style="fill:#01367d; stroke:none;" d="M209 277L210 278L209 277z"/>
<path style="fill:#012b63; stroke:none;" d="M263 277L264 278L263 277z"/>
<path style="fill:#01204a; stroke:none;" d="M264 277L264 278L316 278L299 277L264 277z"/>
<path style="fill:#01367d; stroke:none;" d="M326 277L327 278L326 277z"/>
<path style="fill:#01204a; stroke:none;" d="M380 277L381 278L380 277z"/>
<path style="fill:#012b63; stroke:none;" d="M390 277L391 278L390 277z"/>
<path style="fill:#01204a; stroke:none;" d="M407 277L408 278L407 277z"/>
<path style="fill:#01367d; stroke:none;" d="M199 278L200 279L199 278M316 278L317 279L316 278M406 278L407 279L406 278z"/>
<path style="fill:#01204a; stroke:none;" d="M93 279L94 280L93 279M200 279L201 280L200 279z"/>
<path style="fill:#012b63; stroke:none;" d="M210 279L211 280L210 279z"/>
<path style="fill:#01204a; stroke:none;" d="M317 279L318 280L317 279z"/>
<path style="fill:#012b63; stroke:none;" d="M327 279L328 280L327 279z"/>
<path style="fill:#01204a; stroke:none;" d="M381 279L382 280L381 279M391 279L392 280L391 279z"/>
<path style="fill:#01367d; stroke:none;" d="M200 280L201 281L200 280M392 280L393 281L392 280z"/>
<path style="fill:#01204a; stroke:none;" d="M405 280L406 281L405 280M94 281L95 282L94 281M201 281L202 282L201 281M211 281L212 282L211 281M318 281L319 282L318 281M328 281L329 282L328 281z"/>
<path style="fill:#012b63; stroke:none;" d="M382 281L383 282L382 281z"/>
<path style="fill:#01204a; stroke:none;" d="M392 281L393 282L392 281z"/>
<path style="fill:#01367d; stroke:none;" d="M95 282L96 283L95 282M212 282L213 283L212 282M329 282L330 283L329 282z"/>
<path style="fill:#01204a; stroke:none;" d="M383 282L384 283L383 282z"/>
<path style="fill:#012b63; stroke:none;" d="M393 282L394 283L393 282z"/>
<path style="fill:#01204a; stroke:none;" d="M404 282L405 283L404 282z"/>
<path style="fill:#012b63; stroke:none;" d="M202 283L203 284L202 283z"/>
<path style="fill:#01204a; stroke:none;" d="M212 283L213 284L212 283z"/>
<path style="fill:#012b63; stroke:none;" d="M319 283L320 284L319 283z"/>
<path style="fill:#01204a; stroke:none;" d="M329 283L330 284L329 283z"/>
<path style="fill:#01367d; stroke:none;" d="M383 283L384 284L383 283M403 283L404 284L403 283z"/>
<path style="fill:#012b63; stroke:none;" d="M96 284L97 285L96 284z"/>
<path style="fill:#01367d; stroke:none;" d="M213 284L214 285L213 284M330 284L331 285L330 284z"/>
<path style="fill:#01204a; stroke:none;" d="M384 284L385 285L384 284M394 284L395 285L394 284z"/>
<path style="fill:#01367d; stroke:none;" d="M203 285L204 286L203 285M320 285L321 286L320 285z"/>
<path style="fill:#012b63; stroke:none;" d="M402 285L403 286L402 285z"/>
<path style="fill:#01204a; stroke:none;" d="M97 286L98 287L97 286M204 286L205 287L204 286M214 286L215 287L214 286M321 286L322 287L321 286z"/>
<path style="fill:#012b63; stroke:none;" d="M331 286L332 287L331 286M385 286L386 287L385 286z"/>
<path style="fill:#01204a; stroke:none;" d="M395 286L396 287L395 286z"/>
<path style="fill:#01367d; stroke:none;" d="M98 287L99 288L98 287M396 287L397 288L396 287z"/>
<path style="fill:#01204a; stroke:none;" d="M401 287L402 288L401 287M98 288L99 289L98 288z"/>
<path style="fill:#012b63; stroke:none;" d="M205 288L206 289L205 288z"/>
<path style="fill:#01204a; stroke:none;" d="M215 288L216 289L215 288z"/>
<path style="fill:#012b63; stroke:none;" d="M322 288L323 289L322 288z"/>
<path style="fill:#01204a; stroke:none;" d="M332 288L333 289L332 288z"/>
<path style="fill:#01367d; stroke:none;" d="M386 288L387 289L386 288M99 289L100 290L99 289M216 289L217 290L216 289M333 289L334 290L333 289z"/>
<path style="fill:#01204a; stroke:none;" d="M387 289L388 290L387 289z"/>
<path style="fill:#012b63; stroke:none;" d="M397 289L398 290L397 289z"/>
<path style="fill:#01204a; stroke:none;" d="M400 289L401 290L400 289z"/>
<path style="fill:#01367d; stroke:none;" d="M206 290L207 291L206 290M323 290L324 291L323 290M399 290L400 291L399 290z"/>
<path style="fill:#012b63; stroke:none;" d="M100 291L101 292L100 291z"/>
<path style="fill:#01204a; stroke:none;" d="M207 291L208 292L207 291z"/>
<path style="fill:#012b63; stroke:none;" d="M217 291L218 292L217 291z"/>
<path style="fill:#01204a; stroke:none;" d="M324 291L325 292L324 291z"/>
<path style="fill:#012b63; stroke:none;" d="M334 291L335 292L334 291z"/>
<path style="fill:#01204a; stroke:none;" d="M388 291L389 292L388 291M398 291L399 292L398 291z"/>
<path style="fill:#01367d; stroke:none;" d="M207 292L208 293L207 292M324 292L325 293L324 292z"/>
<path style="fill:#01204a; stroke:none;" d="M101 293L102 294L101 293M208 293L209 294L208 293M218 293L219 294L218 293M325 293L326 294L325 293M335 293L336 294L335 293z"/>
<path style="fill:#012b63; stroke:none;" d="M389 293L390 294L389 293z"/>
<path style="fill:#01367d; stroke:none;" d="M102 294L103 295L102 294M219 294L220 295L219 294z"/>
<path style="fill:#012b63; stroke:none;" d="M209 295L210 296L209 295z"/>
<path style="fill:#01204a; stroke:none;" d="M219 295L220 296L219 295z"/>
<path style="fill:#012b63; stroke:none;" d="M326 295L327 296L326 295z"/>
<path style="fill:#01204a; stroke:none;" d="M336 295L337 296L336 295z"/>
<path style="fill:#01367d; stroke:none;" d="M390 295L391 296L390 295z"/>
<path style="fill:#012b63; stroke:none;" d="M103 296L104 297L103 296z"/>
<path style="fill:#01367d; stroke:none;" d="M220 296L221 297L220 296M337 296L338 297L337 296z"/>
<path style="fill:#01204a; stroke:none;" d="M391 296L392 297L391 296z"/>
<path style="fill:#01367d; stroke:none;" d="M210 297L211 298L210 297M327 297L328 298L327 297z"/>
<path style="fill:#01204a; stroke:none;" d="M104 298L105 299L104 298M211 298L212 299L211 298z"/>
<path style="fill:#012b63; stroke:none;" d="M221 298L222 299L221 298z"/>
<path style="fill:#01204a; stroke:none;" d="M328 298L329 299L328 298z"/>
<path style="fill:#012b63; stroke:none;" d="M338 298L339 299L338 298z"/>
<path style="fill:#01204a; stroke:none;" d="M392 298L393 299L392 298M105 300L106 301L105 300M212 300L213 301L212 300M222 300L223 301L222 300M329 300L330 301L329 300M339 300L340 301L339 300z"/>
<path style="fill:#012b63; stroke:none;" d="M393 300L394 301L393 300z"/>
<path style="fill:#01367d; stroke:none;" d="M106 301L107 302L106 301M223 301L224 302L223 301M339 301L340 302L339 301z"/>
<path style="fill:#01204a; stroke:none;" d="M393 301L394 302L393 301z"/>
<path style="fill:#01367d; stroke:none;" d="M213 302L214 303L213 302z"/>
<path style="fill:#012b63; stroke:none;" d="M328 302L329 303L328 302z"/>
<path style="fill:#01204a; stroke:none;" d="M338 302L339 303L338 302z"/>
<path style="fill:#01367d; stroke:none;" d="M392 302L393 303L392 302z"/>
<path style="fill:#012b63; stroke:none;" d="M107 303L108 304L107 303z"/>
<path style="fill:#01204a; stroke:none;" d="M214 303L215 304L214 303z"/>
<path style="fill:#012b63; stroke:none;" d="M224 303L225 304L224 303z"/>
<path style="fill:#01367d; stroke:none;" d="M338 303L339 304L338 303M214 304L215 305L214 304z"/>
<path style="fill:#01204a; stroke:none;" d="M327 304L328 305L327 304M337 304L338 305L337 304z"/>
<path style="fill:#012b63; stroke:none;" d="M391 304L392 305L391 304z"/>
<path style="fill:#01204a; stroke:none;" d="M108 305L109 306L108 305M215 305L216 306L215 305M225 305L226 306L225 305z"/>
<path style="fill:#01367d; stroke:none;" d="M109 306L110 307L109 306z"/>
<path style="fill:#01204a; stroke:none;" d="M326 306L327 307L326 306z"/>
<path style="fill:#012b63; stroke:none;" d="M336 306L337 307L336 306z"/>
<path style="fill:#01204a; stroke:none;" d="M390 306L391 307L390 306M109 307L110 308L109 307z"/>
<path style="fill:#012b63; stroke:none;" d="M216 307L217 308L216 307z"/>
<path style="fill:#01204a; stroke:none;" d="M226 307L227 308L226 307z"/>
<path style="fill:#01367d; stroke:none;" d="M325 307L326 308L325 307M110 308L111 309L110 308M227 308L228 309L227 308M335 308L336 309L335 308z"/>
<path style="fill:#01204a; stroke:none;" d="M389 308L390 309L389 308z"/>
<path style="fill:#01367d; stroke:none;" d="M217 309L218 310L217 309z"/>
<path style="fill:#012b63; stroke:none;" d="M324 309L325 310L324 309z"/>
<path style="fill:#01204a; stroke:none;" d="M334 309L335 310L334 309z"/>
<path style="fill:#01367d; stroke:none;" d="M388 309L389 310L388 309z"/>
<path style="fill:#012b63; stroke:none;" d="M111 310L112 311L111 310z"/>
<path style="fill:#01204a; stroke:none;" d="M218 310L219 311L218 310z"/>
<path style="fill:#012b63; stroke:none;" d="M228 310L229 311L228 310z"/>
<path style="fill:#01204a; stroke:none;" d="M323 311L324 312L323 311M333 311L334 312L333 311z"/>
<path style="fill:#012b63; stroke:none;" d="M387 311L388 312L387 311z"/>
<path style="fill:#01204a; stroke:none;" d="M112 312L113 313L112 312M219 312L220 313L219 312M229 312L230 313L229 312z"/>
<path style="fill:#01367d; stroke:none;" d="M322 312L323 313L322 312M113 313L114 314L113 313M230 313L231 314L230 313z"/>
<path style="fill:#01204a; stroke:none;" d="M322 313L323 314L322 313z"/>
<path style="fill:#012b63; stroke:none;" d="M332 313L333 314L332 313z"/>
<path style="fill:#01204a; stroke:none;" d="M386 313L387 314L386 313z"/>
<path style="fill:#012b63; stroke:none;" d="M220 314L221 315L220 314z"/>
<path style="fill:#01204a; stroke:none;" d="M230 314L231 315L230 314z"/>
<path style="fill:#012b63; stroke:none;" d="M321 314L322 315L321 314z"/>
<path style="fill:#01367d; stroke:none;" d="M385 314L386 315L385 314z"/>
<path style="fill:#012b63; stroke:none;" d="M114 315L115 316L114 315z"/>
<path style="fill:#01367d; stroke:none;" d="M231 315L232 316L231 315M331 315L332 316L331 315z"/>
<path style="fill:#01204a; stroke:none;" d="M385 315L386 316L385 315z"/>
<path style="fill:#01367d; stroke:none;" d="M221 316L222 317L221 316z"/>
<path style="fill:#01204a; stroke:none;" d="M320 316L321 317L320 316M330 316L331 317L330 316z"/>
<path style="fill:#01367d; stroke:none;" d="M384 316L385 317L384 316z"/>
<path style="fill:#01204a; stroke:none;" d="M115 317L116 318L115 317M222 317L223 318L222 317M232 317L233 318L232 317z"/>
<path style="fill:#01367d; stroke:none;" d="M116 318L117 319L116 318z"/>
<path style="fill:#01204a; stroke:none;" d="M319 318L320 319L319 318z"/>
<path style="fill:#012b63; stroke:none;" d="M329 318L330 319L329 318M383 318L384 319L383 318z"/>
<path style="fill:#01204a; stroke:none;" d="M116 319L117 320L116 319z"/>
<path style="fill:#012b63; stroke:none;" d="M223 319L224 320L223 319z"/>
<path style="fill:#01204a; stroke:none;" d="M233 319L234 320L233 319z"/>
<path style="fill:#01367d; stroke:none;" d="M318 319L319 320L318 319M117 320L118 321L117 320M234 320L235 321L234 320M328 320L329 321L328 320z"/>
<path style="fill:#01204a; stroke:none;" d="M382 320L383 321L382 320z"/>
<path style="fill:#01367d; stroke:none;" d="M224 321L225 322L224 321z"/>
<path style="fill:#012b63; stroke:none;" d="M317 321L318 322L317 321z"/>
<path style="fill:#01204a; stroke:none;" d="M327 321L328 322L327 321z"/>
<path style="fill:#01367d; stroke:none;" d="M381 321L382 322L381 321z"/>
<path style="fill:#012b63; stroke:none;" d="M118 322L119 323L118 322z"/>
<path style="fill:#01204a; stroke:none;" d="M225 322L226 323L225 322z"/>
<path style="fill:#012b63; stroke:none;" d="M235 322L236 323L235 322z"/>
<path style="fill:#01367d; stroke:none;" d="M327 322L328 323L327 322z"/>
<path style="fill:#01204a; stroke:none;" d="M381 322L382 323L381 322z"/>
<path style="fill:#01367d; stroke:none;" d="M225 323L226 324L225 323z"/>
<path style="fill:#01204a; stroke:none;" d="M316 323L317 324L316 323M326 323L327 324L326 323z"/>
<path style="fill:#012b63; stroke:none;" d="M380 323L381 324L380 323M325 325L326 326L325 325z"/>
<path style="fill:#01204a; stroke:none;" d="M379 325L380 326L379 325z"/>
<path style="fill:#01367d; stroke:none;" d="M324 327L325 328L324 327z"/>
<path style="fill:#01204a; stroke:none;" d="M378 327L379 328L378 327M323 328L324 329L323 328z"/>
<path style="fill:#01367d; stroke:none;" d="M377 328L378 329L377 328z"/>
<path style="fill:#01204a; stroke:none;" d="M322 330L323 331L322 330z"/>
<path style="fill:#012b63; stroke:none;" d="M376 330L377 331L376 330z"/>
<path style="fill:#01204a; stroke:none;" d="M125 332L125 333L178 333L161 332L125 332z"/>
<path style="fill:#012b63; stroke:none;" d="M321 332L322 333L321 332z"/>
<path style="fill:#01204a; stroke:none;" d="M375 332L376 333L375 332z"/>
<path style="fill:#01367d; stroke:none;" d="M178 333L179 334L178 333M374 333L375 334L374 333z"/>
<path style="fill:#012b63; stroke:none;" d="M125 334L126 335L125 334z"/>
<path style="fill:#01204a; stroke:none;" d="M179 334L180 335L179 334z"/>
<path style="fill:#01367d; stroke:none;" d="M320 334L321 335L320 334z"/>
<path style="fill:#01204a; stroke:none;" d="M374 334L375 335L374 334M319 335L320 336L319 335z"/>
<path style="fill:#01367d; stroke:none;" d="M373 335L374 336L373 335z"/>
<path style="fill:#01204a; stroke:none;" d="M126 336L127 337L126 336z"/>
<path style="fill:#012b63; stroke:none;" d="M180 336L181 337L180 336z"/>
<path style="fill:#01204a; stroke:none;" d="M318 337L319 338L318 337z"/>
<path style="fill:#012b63; stroke:none;" d="M372 337L373 338L372 337z"/>
<path style="fill:#01204a; stroke:none;" d="M127 338L128 339L127 338z"/>
<path style="fill:#01367d; stroke:none;" d="M181 338L182 339L181 338M128 339L129 340L128 339z"/>
<path style="fill:#01204a; stroke:none;" d="M182 339L183 340L182 339z"/>
<path style="fill:#01367d; stroke:none;" d="M317 339L318 340L317 339z"/>
<path style="fill:#01204a; stroke:none;" d="M371 339L372 340L371 339M316 340L317 341L316 340z"/>
<path style="fill:#01367d; stroke:none;" d="M370 340L371 341L370 340z"/>
<path style="fill:#012b63; stroke:none;" d="M129 341L130 342L129 341z"/>
<path style="fill:#01204a; stroke:none;" d="M183 341L184 342L183 341z"/>
<path style="fill:#01367d; stroke:none;" d="M316 341L317 342L316 341z"/>
<path style="fill:#01204a; stroke:none;" d="M370 341L371 342L370 341M315 342L316 343L315 342z"/>
<path style="fill:#012b63; stroke:none;" d="M369 342L370 343L369 342z"/>
<path style="fill:#01204a; stroke:none;" d="M130 343L131 344L130 343z"/>
<path style="fill:#012b63; stroke:none;" d="M184 343L185 344L184 343z"/>
<path style="fill:#01367d; stroke:none;" d="M131 344L132 345L131 344z"/>
<path style="fill:#012b63; stroke:none;" d="M314 344L315 345L314 344z"/>
<path style="fill:#01204a; stroke:none;" d="M368 344L369 345L368 344M131 345L132 346L131 345z"/>
<path style="fill:#01367d; stroke:none;" d="M185 345L186 346L185 345M132 346L133 347L132 346z"/>
<path style="fill:#01204a; stroke:none;" d="M186 346L187 347L186 346z"/>
<path style="fill:#01367d; stroke:none;" d="M313 346L314 347L313 346z"/>
<path style="fill:#01204a; stroke:none;" d="M367 346L368 347L367 346M312 347L313 348L312 347z"/>
<path style="fill:#01367d; stroke:none;" d="M366 347L367 348L366 347z"/>
<path style="fill:#012b63; stroke:none;" d="M133 348L134 349L133 348z"/>
<path style="fill:#01204a; stroke:none;" d="M187 348L188 349L187 348M311 349L312 350L311 349z"/>
<path style="fill:#012b63; stroke:none;" d="M365 349L366 350L365 349z"/>
<path style="fill:#01204a; stroke:none;" d="M134 350L135 351L134 350z"/>
<path style="fill:#01367d; stroke:none;" d="M188 350L189 351L188 350M135 351L136 352L135 351z"/>
<path style="fill:#01204a; stroke:none;" d="M189 351L190 352L189 351z"/>
<path style="fill:#012b63; stroke:none;" d="M310 351L311 352L310 351z"/>
<path style="fill:#01204a; stroke:none;" d="M364 351L365 352L364 351M135 352L136 353L135 352z"/>
<path style="fill:#01367d; stroke:none;" d="M189 352L190 353L189 352z"/>
<path style="fill:#012b63; stroke:none;" d="M136 353L137 354L136 353z"/>
<path style="fill:#01204a; stroke:none;" d="M190 353L191 354L190 353z"/>
<path style="fill:#01367d; stroke:none;" d="M309 353L310 354L309 353z"/>
<path style="fill:#01204a; stroke:none;" d="M363 353L364 354L363 353M308 354L309 355L308 354z"/>
<path style="fill:#01367d; stroke:none;" d="M362 354L363 355L362 354z"/>
<path style="fill:#01204a; stroke:none;" d="M137 355L138 356L137 355z"/>
<path style="fill:#012b63; stroke:none;" d="M191 355L192 356L191 355z"/>
<path style="fill:#01204a; stroke:none;" d="M307 356L308 357L307 356z"/>
<path style="fill:#012b63; stroke:none;" d="M361 356L362 357L361 356z"/>
<path style="fill:#01204a; stroke:none;" d="M138 357L139 358L138 357z"/>
<path style="fill:#01367d; stroke:none;" d="M192 357L193 358L192 357M139 358L140 359L139 358z"/>
<path style="fill:#01204a; stroke:none;" d="M193 358L194 359L193 358z"/>
<path style="fill:#01367d; stroke:none;" d="M306 358L307 359L306 358z"/>
<path style="fill:#01204a; stroke:none;" d="M360 358L361 359L360 358z"/>
<path style="fill:#01367d; stroke:none;" d="M193 359L194 360L193 359z"/>
<path style="fill:#01204a; stroke:none;" d="M305 359L306 360L305 359z"/>
<path style="fill:#01367d; stroke:none;" d="M359 359L360 360L359 359z"/>
<path style="fill:#012b63; stroke:none;" d="M140 360L141 361L140 360z"/>
<path style="fill:#01204a; stroke:none;" d="M194 360L195 361L194 360z"/>
<path style="fill:#01367d; stroke:none;" d="M305 360L306 361L305 360z"/>
<path style="fill:#01204a; stroke:none;" d="M359 360L360 361L359 360M304 361L305 362L304 361z"/>
<path style="fill:#01367d; stroke:none;" d="M358 361L359 362L358 361z"/>
<path style="fill:#01204a; stroke:none;" d="M141 362L142 363L141 362z"/>
<path style="fill:#012b63; stroke:none;" d="M195 362L196 363L195 362M303 363L304 364L303 363z"/>
<path style="fill:#01204a; stroke:none;" d="M357 363L358 364L357 363M142 364L143 365L142 364z"/>
<path style="fill:#01367d; stroke:none;" d="M196 364L197 365L196 364M143 365L144 366L143 365z"/>
<path style="fill:#01204a; stroke:none;" d="M197 365L198 366L197 365z"/>
<path style="fill:#01367d; stroke:none;" d="M302 365L303 366L302 365z"/>
<path style="fill:#01204a; stroke:none;" d="M356 365L357 366L356 365M301 366L302 367L301 366z"/>
<path style="fill:#01367d; stroke:none;" d="M355 366L356 367L355 366z"/>
<path style="fill:#012b63; stroke:none;" d="M144 367L145 368L144 367z"/>
<path style="fill:#01204a; stroke:none;" d="M198 367L199 368L198 367M300 368L301 369L300 368z"/>
<path style="fill:#012b63; stroke:none;" d="M354 368L355 369L354 368z"/>
<path style="fill:#01204a; stroke:none;" d="M145 369L146 370L145 369z"/>
<path style="fill:#012b63; stroke:none;" d="M199 369L200 370L199 369z"/>
<path style="fill:#01367d; stroke:none;" d="M146 370L147 371L146 370z"/>
<path style="fill:#012b63; stroke:none;" d="M299 370L300 371L299 370z"/>
<path style="fill:#01204a; stroke:none;" d="M353 370L354 371L353 370M146 371L147 372L146 371z"/>
<path style="fill:#01367d; stroke:none;" d="M200 371L201 372L200 371M147 372L148 373L147 372z"/>
<path style="fill:#01204a; stroke:none;" d="M201 372L202 373L201 372z"/>
<path style="fill:#01367d; stroke:none;" d="M298 372L299 373L298 372z"/>
<path style="fill:#01204a; stroke:none;" d="M352 372L353 373L352 372M297 373L298 374L297 373z"/>
<path style="fill:#01367d; stroke:none;" d="M351 373L352 374L351 373z"/>
<path style="fill:#012b63; stroke:none;" d="M148 374L149 375L148 374z"/>
<path style="fill:#01204a; stroke:none;" d="M202 374L203 375L202 374M296 375L297 376L296 375z"/>
<path style="fill:#012b63; stroke:none;" d="M350 375L351 376L350 375z"/>
<path style="fill:#01204a; stroke:none;" d="M149 376L150 377L149 376z"/>
<path style="fill:#01367d; stroke:none;" d="M203 376L204 377L203 376M150 377L151 378L150 377z"/>
<path style="fill:#01204a; stroke:none;" d="M204 377L204 378L234 379L294 379L294 378L236 378L204 377z"/>
<path style="fill:#01367d; stroke:none;" d="M295 377L296 378L295 377z"/>
<path style="fill:#01204a; stroke:none;" d="M349 377L350 378L349 377z"/>
<path style="fill:#01367d; stroke:none;" d="M204 378L205 379L204 378z"/>
<path style="fill:#012b63; stroke:none;" d="M294 378L295 379L294 378z"/>
<path style="fill:#01367d; stroke:none;" d="M348 378L349 379L348 378z"/>
<path style="fill:#012b63; stroke:none;" d="M151 379L152 380L151 379z"/>
<path style="fill:#01204a; stroke:none;" d="M348 379L349 380L348 379z"/>
<path style="fill:#01367d; stroke:none;" d="M347 380L348 381L347 380z"/>
<path style="fill:#01204a; stroke:none;" d="M152 381L153 382L152 381M346 382L347 383L346 382M153 383L154 384L153 383z"/>
<path style="fill:#01367d; stroke:none;" d="M154 384L155 385L154 384z"/>
<path style="fill:#01204a; stroke:none;" d="M345 384L346 385L345 384z"/>
<path style="fill:#01367d; stroke:none;" d="M344 385L345 386L344 385z"/>
<path style="fill:#012b63; stroke:none;" d="M155 386L156 387L155 386M343 387L344 388L343 387z"/>
<path style="fill:#01204a; stroke:none;" d="M156 388L157 389L156 388z"/>
<path style="fill:#01367d; stroke:none;" d="M157 389L158 390L157 389z"/>
<path style="fill:#01204a; stroke:none;" d="M342 389L343 390L342 389M157 390L158 391L157 390z"/>
<path style="fill:#01367d; stroke:none;" d="M158 391L159 392L158 391z"/>
<path style="fill:#01204a; stroke:none;" d="M341 391L342 392L341 391z"/>
<path style="fill:#01367d; stroke:none;" d="M340 392L341 393L340 392z"/>
<path style="fill:#012b63; stroke:none;" d="M159 393L160 394L159 393M339 394L340 395L339 394z"/>
<path style="fill:#01204a; stroke:none;" d="M160 395L161 396L160 395z"/>
<path style="fill:#01367d; stroke:none;" d="M161 396L162 397L161 396z"/>
<path style="fill:#01204a; stroke:none;" d="M338 396L339 397L338 396M161 397L162 398L161 397z"/>
<path style="fill:#01367d; stroke:none;" d="M337 397L338 398L337 397M162 398L163 399L162 398z"/>
<path style="fill:#01204a; stroke:none;" d="M337 398L338 399L337 398z"/>
<path style="fill:#01367d; stroke:none;" d="M336 399L337 400L336 399z"/>
<path style="fill:#01204a; stroke:none;" d="M163 400L164 401L163 400z"/>
<path style="fill:#012b63; stroke:none;" d="M335 401L336 402L335 401z"/>
<path style="fill:#01204a; stroke:none;" d="M164 402L165 403L164 402z"/>
<path style="fill:#01367d; stroke:none;" d="M165 403L166 404L165 403z"/>
<path style="fill:#01204a; stroke:none;" d="M334 403L335 404L334 403z"/>
<path style="fill:#01367d; stroke:none;" d="M333 404L334 405L333 404z"/>
<path style="fill:#012b63; stroke:none;" d="M166 405L167 406L166 405M332 406L333 407L332 406z"/>
<path style="fill:#01204a; stroke:none;" d="M167 407L168 408L167 407M331 408L332 409L331 408M168 409L169 410L168 409z"/>
<path style="fill:#01367d; stroke:none;" d="M169 410L170 411L169 410z"/>
<path style="fill:#01204a; stroke:none;" d="M330 410L331 411L330 410z"/>
<path style="fill:#01367d; stroke:none;" d="M329 411L330 412L329 411z"/>
<path style="fill:#012b63; stroke:none;" d="M170 412L171 413L170 412M328 413L329 414L328 413z"/>
<path style="fill:#01204a; stroke:none;" d="M171 414L172 415L171 414z"/>
<path style="fill:#01367d; stroke:none;" d="M172 415L173 416L172 415z"/>
<path style="fill:#01204a; stroke:none;" d="M327 415L328 416L327 415M172 416L173 417L172 416z"/>
<path style="fill:#01367d; stroke:none;" d="M326 416L327 417L326 416M173 417L174 418L173 417z"/>
<path style="fill:#01204a; stroke:none;" d="M326 417L327 418L326 417z"/>
<path style="fill:#01367d; stroke:none;" d="M325 418L326 419L325 418z"/>
<path style="fill:#012b63; stroke:none;" d="M174 419L175 420L174 419M324 420L325 421L324 420z"/>
<path style="fill:#01204a; stroke:none;" d="M175 421L176 422L175 421z"/>
<path style="fill:#01367d; stroke:none;" d="M176 422L177 423L176 422z"/>
<path style="fill:#01204a; stroke:none;" d="M323 422L324 423L323 422M176 423L177 424L176 423z"/>
<path style="fill:#01367d; stroke:none;" d="M322 423L323 424L322 423z"/>
<path style="fill:#012b63; stroke:none;" d="M177 424L178 425L177 424z"/>
<path style="fill:#01204a; stroke:none;" d="M322 424L323 425L322 424z"/>
</svg>
